<?xml version="1.0" standalone="no"?>
<!DOCTYPE svg PUBLIC "-//W3C//DTD SVG 1.1//EN" "http://www.w3.org/Graphics/SVG/1.1/DTD/svg11.dtd" >
<svg xmlns="http://www.w3.org/2000/svg" xmlns:xlink="http://www.w3.org/1999/xlink" version="1.1">
<metadata>
Created by FontForge 20170731 at Sat Jun 30 11:10:55 2018
 By Aleksey,,,
Copyright (c) 2018 by Sentype Foundry. All rights reserved.
</metadata>
<defs>
<font id="Quantify" horiz-adv-x="558" >
  <font-face 
    font-family="Quantify"
    font-weight="400"
    font-stretch="normal"
    units-per-em="1000"
    panose-1="2 0 5 6 0 0 0 2 0 4"
    ascent="800"
    descent="-200"
    x-height="500"
    cap-height="700"
    bbox="0 -231 1002 914"
    underline-thickness="50"
    underline-position="-150"
    unicode-range="U+000D-20AC"
  />
<missing-glyph horiz-adv-x="500" 
 />
    <glyph glyph-name=".notdef" horiz-adv-x="500" 
 />
    <glyph glyph-name=".null" horiz-adv-x="0" 
 />
    <glyph glyph-name="nonmarkingreturn" unicode="&#xd;" horiz-adv-x="500" 
 />
    <glyph glyph-name="NULL" horiz-adv-x="0" 
 />
    <glyph glyph-name="NULL" horiz-adv-x="0" 
 />
    <glyph glyph-name="space" unicode=" " horiz-adv-x="200" 
 />
    <glyph glyph-name="exclam" unicode="!" horiz-adv-x="225" 
d="M113 151q33 -1 56 -24t23 -56q-1 -32 -24 -55.5t-56 -22.5q-32 0 -55.5 23.5t-23.5 55.5q0 33 24 56t56 23zM195 700v-300l-40 -202h-85l-40 202v300h165z" />
    <glyph glyph-name="quotedbl" unicode="&#x22;" horiz-adv-x="423" 
d="M74 700h148l-99 -255h-93zM243 700h150l-100 -255h-94z" />
    <glyph glyph-name="numbersign" unicode="#" horiz-adv-x="629" 
d="M313 86l22 132l77 -34l-16 -98h-83zM585 391h-139l-14 -82h141l-14 -83h-7h-133h-83h-19h-63l-24 -140h-82l22 140h-140l14 83h140l12 75l76 -35l-5 -40h83l13 82h-48v0h-138v0h-121l14 84h142l22 140h83l-23 -140h82l23 140h82l-22 -140h140z" />
    <glyph glyph-name="dollar" unicode="$" horiz-adv-x="593" 
d="M348 411q48 -13 88.5 -28.5t69.5 -38.5t45.5 -54.5t16.5 -76.5v-1q0 -43 -15 -79.5t-42 -64t-65 -45.5t-83 -24v-87h-133v94q-36 7 -68.5 21t-59 32t-46.5 39t-31 42l116 75q37 -42 77 -66t100 -24q19 0 39 4t35.5 13t25.5 22.5t10 33.5q0 14 -7 27t-24 25t-46 23t-73 22
q-54 14 -97 31t-72 40.5t-44.5 55.5t-15.5 76v2q0 41 13.5 75.5t37.5 60.5t57 43t73 24v90h133v-92q74 -14 123 -49t77 -72l-114 -74q-43 40 -81 56.5t-79 16.5q-26 0 -44.5 -6.5t-30.5 -16t-18 -21t-6 -21.5q-1 -20 9 -34.5t30.5 -26.5t50.5 -22t68 -20z" />
    <glyph glyph-name="percent" unicode="%" horiz-adv-x="654" 
d="M566 573l-433 -486l-44 41l433 486zM318 565q0 -30 -11.5 -56.5t-31 -46t-45.5 -30.5t-56 -11t-56 11t-45.5 30.5t-31 46t-11.5 56.5q0 29 11.5 55t31 45.5t45.5 31t56 11.5t56 -11.5t45.5 -31t31 -45.5t11.5 -55zM120 565q0 -23 15.5 -39.5t38.5 -16.5t39 16.5t16 39.5
q0 22 -16 38t-39 16t-38.5 -16t-15.5 -38zM480 280q30 0 56 -11.5t45.5 -31t31 -45.5t11.5 -56t-11.5 -56t-31 -45.5t-45.5 -31t-56 -11.5t-56.5 11.5t-46 31t-30.5 45.5t-11 56t11 56t30.5 45.5t46 31t56.5 11.5zM480 82q23 0 38.5 15.5t15.5 38.5t-15.5 39t-38.5 16
t-38.5 -16t-15.5 -39t15.5 -38.5t38.5 -15.5z" />
    <glyph glyph-name="ampersand" unicode="&#x26;" horiz-adv-x="626" 
d="M596 91l-100 -100l-55 56l-102 101l-134 135l-8 -7q-27 -24 -27 -58q0 -19 9 -36t23.5 -30t34 -20.5t40.5 -7.5q12 0 26 1t27 5l37 -121q-22 -7 -44.5 -11t-45.5 -4q-50 0 -95 18t-78.5 48.5t-53.5 71.5t-20 86q0 46 18.5 87.5t53.5 73.5l5 4q-21 27 -33 58t-12 65
q0 42 17 79t48 66t69.5 43.5t80.5 14.5q37 0 67 -9.5t54.5 -24.5t44 -34t35.5 -38l-113 -86q-17 24 -38 44t-50 20q-32 0 -53 -22.5t-21 -52.5q0 -26 20 -43l1 -2l181 -180v101q11 3 28 7.5t36 10t39 11t37 10.5v-203q0 -17 -3.5 -32.5t-9.5 -32.5z" />
    <glyph glyph-name="quotesingle" unicode="'" horiz-adv-x="255" 
d="M75 700h150l-101 -257h-94l45 257v0z" />
    <glyph glyph-name="parenleft" unicode="(" horiz-adv-x="359" 
d="M162 -64q-66 88 -99 195t-33 218t33.5 218.5t99.5 196.5h166l-40 -49q-43 -50 -72 -110t-43.5 -124.5t-14.5 -132t14.5 -132t43 -123.5t71.5 -108l41 -49h-167z" />
    <glyph glyph-name="parenright" unicode=")" horiz-adv-x="359" 
d="M30 -64l41 49q43 49 71.5 108t43 123.5t14.5 132t-14.5 132t-43.5 124.5t-72 110l-40 49h166q66 -89 99.5 -196.5t33.5 -218.5t-33 -218t-99 -195h-167z" />
    <glyph glyph-name="asterisk" unicode="*" horiz-adv-x="323" 
d="M197 710l61 -34l-53 -72l88 9v-69l-88 10l53 -72l-61 -35l-35 82l-36 -82l-60 35l53 72l-89 -10v69l89 -9l-53 72l60 34l36 -82l35 82v0z" />
    <glyph glyph-name="plus" unicode="+" horiz-adv-x="392" 
d="M362 424v-85h-124v-123h-85v123h-123v85h123v124h85v-124h124v0z" />
    <glyph glyph-name="comma" unicode="," horiz-adv-x="213" 
d="M50 116h133l-89 -228h-84l40 228v0z" />
    <glyph glyph-name="hyphen" unicode="-" horiz-adv-x="389" 
d="M359 264h-329v84h329v-84v0z" />
    <glyph glyph-name="period" unicode="." horiz-adv-x="219" 
d="M110 149q33 0 56 -23t22 -56q0 -33 -23.5 -56t-56.5 -23q-32 1 -55 24t-22 57q0 32 23 55t56 22z" />
    <glyph glyph-name="slash" unicode="/" horiz-adv-x="521" 
d="M95 -60h-65l396 828h65z" />
    <glyph glyph-name="zero" unicode="0" horiz-adv-x="559" 
d="M280 708q73 0 121.5 -27.5t78 -76t42 -114t12.5 -140.5q0 -66 -8 -124.5t-29 -104.5t-56.5 -78t-90.5 -44l-57 124q27 3 46.5 21t32.5 48t19 70t6 88q0 50 -7 92t-21 72t-36.5 47t-52.5 17q-29 0 -51 -17t-37 -47t-22.5 -72t-7.5 -92t6 -92t20 -72.5t36.5 -47.5t55.5 -17
v-129q-71 0 -119.5 27.5t-78.5 76t-43.5 114t-13.5 140.5t12.5 140.5t42 114t78.5 76t122 27.5z" />
    <glyph glyph-name="one" unicode="1" horiz-adv-x="387" 
d="M217 700h135v-80l-242 -158l-75 117zM213 0v517l139 18v-535h-139z" />
    <glyph glyph-name="two" unicode="2" horiz-adv-x="554" 
d="M544 0h-508v122h508v-122zM278 567q-36 0 -65.5 -21.5t-41.5 -55.5l-136 39q12 39 36 71.5t56 56.5t70.5 37.5t80.5 13.5q55 0 102 -18t81.5 -49.5t54 -74.5t19.5 -93q0 -41 -21.5 -84t-57 -85.5t-81 -85t-93.5 -82.5l-144 64q21 18 48 40t55 46.5t55.5 50.5t48.5 50.5
t34 46.5t13 39q0 23 -9.5 40.5t-25.5 29.5t-36.5 18t-42.5 6z" />
    <glyph glyph-name="three" unicode="3" horiz-adv-x="544" 
d="M519 700v-126h-456v126h456zM412 444q49 -33 78 -86.5t29 -117.5q0 -51 -19.5 -96.5t-53 -79t-79 -53t-96.5 -19.5q-41 0 -78.5 13t-68.5 35.5t-54 54t-35 68.5l134 44q3 -15 11 -30.5t20.5 -28t30 -20t40.5 -7.5q27 0 47.5 9.5t34 25.5t20 38t6.5 46q0 45 -31 74.5
t-76 29.5h-70l-1 107l132 112l144 -64z" />
    <glyph glyph-name="four" unicode="4" horiz-adv-x="583" 
d="M342 400h139v-134l-139 70v64zM573 252v-128h-92v-124h-139v124h-317v127l225 449h154l-217 -448h386z" />
    <glyph glyph-name="five" unicode="5" horiz-adv-x="545" 
d="M95 575l17 125h390v-125h-407zM270 469q63 0 109.5 -22t78 -56.5t47 -77t15.5 -82.5q0 -50 -18.5 -93.5t-51.5 -75.5t-79 -51t-101 -19q-39 0 -76 12t-68 33t-55 50t-36 64l132 49q5 -15 12 -29t19 -25t29.5 -18t42.5 -7t45 9t33.5 23t21 31.5t7.5 34.5v12q0 49 -28.5 73
t-73.5 33t-101 8t-111 -1l21 147l159 70l-10 -92h37z" />
    <glyph glyph-name="six" unicode="6" horiz-adv-x="527" 
d="M323 461q39 -10 71.5 -31.5t56.5 -51.5t37.5 -67.5t13.5 -79.5q0 -49 -18.5 -92.5t-51 -76t-76 -51.5t-92.5 -19t-92.5 19t-76 51.5t-51.5 76t-19 92.5q0 41 13 78t37 66l227 325h174l-288 -405q-13 -14 -20.5 -32t-7.5 -38q0 -22 8 -40.5t22.5 -32.5t33.5 -22t40 -8
t39.5 8t33 22t22.5 32.5t8 40.5q0 35 -21 62.5t-54 37.5l31 136v0z" />
    <glyph glyph-name="seven" unicode="7" horiz-adv-x="476" 
d="M10 700h456v-125h-456v125zM26 0l283 563l132 -54l-259 -509h-156z" />
    <glyph glyph-name="eight" unicode="8" horiz-adv-x="534" 
d="M432 387q35 -31 56 -73.5t21 -92.5q0 -39 -13 -74t-36 -64t-54.5 -50t-68.5 -32l-56 121q20 2 37 10.5t30 22t20 30.5t7 36q0 21 -8.5 39.5t-23 32t-34.5 21.5t-42 8t-41.5 -8t-34.5 -21.5t-23.5 -32t-8.5 -39.5t8.5 -39.5t23.5 -32t34.5 -21t41.5 -7.5v-129
q-50 0 -94 18t-77 49t-52 73t-19 89q0 50 20.5 92.5t55.5 73.5q-43 51 -43 122q0 41 16.5 77.5t44.5 63.5t66 42.5t82 15.5q43 0 81.5 -15.5t66.5 -42.5t44.5 -63.5t16.5 -77.5q0 -35 -11.5 -66t-32.5 -56zM267 439q32 0 54.5 20.5t22.5 49.5t-22.5 49t-54.5 20t-54.5 -20
t-22.5 -49t22.5 -49.5t54.5 -20.5z" />
    <glyph glyph-name="nine" unicode="9" horiz-adv-x="514" 
d="M265 708q49 0 92.5 -19t76 -51.5t51.5 -76.5t19 -93q0 -41 -13 -78t-36 -67l-229 -323h-172l288 404q12 14 19 32t7 38q0 21 -8 40t-22 33.5t-33 22.5t-40 8q-22 0 -41 -8t-33 -22.5t-22 -33.5t-8 -40q0 -36 21 -63t55 -37l-32 -137q-39 10 -72 31.5t-57 52t-37.5 68
t-13.5 79.5q0 49 19 93t51.5 76.5t76 51.5t93.5 19z" />
    <glyph glyph-name="colon" unicode=":" horiz-adv-x="219" 
d="M111 152q16 0 30 -6.5t24.5 -17.5t16.5 -25.5t6 -30.5q0 -33 -23.5 -56t-55.5 -23q-33 1 -56 24.5t-23 56.5q0 32 24 55t57 23zM109 349q-33 1 -56 24.5t-23 55.5q0 33 24 56t57 23q32 0 55 -24t22 -57q0 -32 -23.5 -55t-55.5 -23z" />
    <glyph glyph-name="semicolon" unicode=";" horiz-adv-x="250" 
d="M137 346q-33 0 -56.5 23.5t-22.5 57.5q0 34 23.5 57.5t57.5 23.5q33 -1 57 -24.5t24 -57.5q-1 -34 -25 -57t-58 -23zM71 115h135l-90 -234h-86z" />
    <glyph glyph-name="less" unicode="&#x3c;" horiz-adv-x="303" 
d="M72 241l54 67l147 -91v-101zM30 355l243 153v-101l-136 -86v0l-107 -54v88z" />
    <glyph glyph-name="equal" unicode="=" horiz-adv-x="530" 
d="M30 500h470v-85h-470v85zM30 242v86h470v-86h-470z" />
    <glyph glyph-name="greater" unicode="&#x3e;" horiz-adv-x="303" 
d="M231 241l-201 -125v101l147 91zM273 355v-88l-107 54v0l-136 86v101z" />
    <glyph glyph-name="question" unicode="?" horiz-adv-x="555" 
d="M270 152q33 -1 56 -24t23 -56q-1 -33 -24 -56.5t-56 -22.5q-33 0 -56 23.5t-23 56.5t23.5 56t56.5 23zM304 708q103 0 162 -55t59 -155v-2q0 -44 -14 -72.5t-35 -49.5t-45 -37.5t-45 -34.5t-35 -42.5t-14 -60.5h-141q-1 3 -1 10v2q0 52 15 84.5t37 54t48 36t48 30.5
t37 38t15 58q0 28 -23 46.5t-59.5 21t-81 -15t-86.5 -60.5l-115 74q18 22 43.5 45.5t59 42t76.5 30.5t95 12z" />
    <glyph glyph-name="at" unicode="@" horiz-adv-x="756" 
d="M378 582q72 0 135.5 -27.5t110.5 -74.5t74.5 -110.5t27.5 -135.5q0 -68 -13 -111t-33.5 -67t-46 -32.5t-50.5 -8.5q-70 0 -105 54t-35 166q0 17 -7 32.5t-18.5 27t-27 18.5t-33.5 7t-34 -7t-28 -18.5t-18.5 -27t-6.5 -33.5t6.5 -33.5t18.5 -27t28 -18.5t34 -7q17 0 32 7
h1v-1l31 -56h-1q-29 -23 -75 -23q-33 0 -62 12.5t-51 34t-34.5 50.5t-12.5 62t12.5 62t34.5 50.5t51 34t62 12.5q64 0 98 -46v46h82q-2 -66 -1.5 -115t2.5 -87q3 -45 8.5 -73.5t13.5 -44.5t18.5 -22t22.5 -6q43 0 67.5 33.5t33 82t2.5 102.5t-23 94q-18 43 -47.5 79
t-67.5 61t-83 39t-93 14q-66 0 -123.5 -25t-100 -67.5t-67.5 -100t-25 -123.5t25 -123.5t68 -100.5t100.5 -68t122.5 -25q32 0 68.5 6.5t65.5 19.5v-35q-30 -11 -66 -16.5t-68 -5.5q-72 0 -135.5 27.5t-110.5 75t-74.5 110.5t-27.5 135t27 135t74.5 110.5t111 75t135.5 27.5
z" />
    <glyph glyph-name="A" unicode="A" horiz-adv-x="775" 
d="M600 0l-52 124h-320l-53 -124h-150l287 700h151l-185 -451h219l-99 240l113 97l239 -586h-150v0z" />
    <glyph glyph-name="B" unicode="B" horiz-adv-x="661" 
d="M552 377q38 -28 61 -71.5t23 -94.5q0 -44 -16.5 -82t-45 -67t-67 -45.5t-81.5 -16.5h-147l-65 122h214q14 0 26.5 7.5t21.5 18.5t14.5 25t5.5 28q0 15 -5.5 29.5t-15.5 25.5t-22.5 18t-26.5 7h-251v-281h-140v701h341q43 0 81.5 -16.5t67 -45t45 -67t16.5 -81.5
q0 -32 -9 -60.5t-25 -53.5zM376 420q14 0 26.5 6.5t22.5 17t15.5 25t5.5 30.5t-5.5 30.5t-15.5 25.5t-22.5 17.5t-26.5 6.5h-201v-159h201z" />
    <glyph glyph-name="C" unicode="C" horiz-adv-x="713" 
d="M688 161q-24 -38 -56.5 -69t-71.5 -53.5t-84 -34.5t-93 -12q-74 0 -139.5 28t-114 76.5t-76.5 114t-28 139.5t28 139.5t76.5 114t114 76.5t139.5 28q48 0 93 -12t84 -34.5t71.5 -53.5t56.5 -69l-117 -75q-28 54 -77 86.5t-111 32.5q-44 0 -83 -18.5t-68 -50t-46 -74
t-17 -90.5t17 -90.5t46 -74t68 -50t83 -18.5q62 0 111 32.5t77 86.5z" />
    <glyph glyph-name="D" unicode="D" horiz-adv-x="710" 
d="M335 700q72 0 136 -27.5t111.5 -75t75 -111.5t27.5 -136t-27.5 -136t-75 -111.5t-111.5 -75t-136 -27.5h-58l-66 122h124q43 0 81.5 17t67 47.5t45 72.5t16.5 91q0 48 -16.5 90t-45 72.5t-67 48t-81.5 17.5h-160v-578h-140v700h300v0z" />
    <glyph glyph-name="E" unicode="E" horiz-adv-x="539" 
d="M421 279h-156l-65 131h221v-131zM504 700l1 -117h-329l-1 -467h329v-116h-469v700h469z" />
    <glyph glyph-name="F" unicode="F" horiz-adv-x="518" 
d="M266 281l-65 130h222v-130h-157zM35 701h473v-118h-332v-583h-141v701z" />
    <glyph glyph-name="G" unicode="G" horiz-adv-x="756" 
d="M727 410q2 -15 3 -30t1 -30q0 -74 -26.5 -139.5t-73 -114t-110.5 -76.5t-138 -28t-139.5 28t-114 76.5t-76.5 114t-28 139.5t28 139.5t76.5 114t114 76.5t139.5 28q97 0 176.5 -46.5t127.5 -122.5l-117 -75q-27 54 -76.5 86.5t-110.5 32.5q-45 0 -84 -18.5t-68 -50
t-46 -74t-17 -90.5t17 -90.5t46 -74t68 -50t84 -18.5q36 0 68 12t57 34t43.5 51.5t27.5 65.5h-190l-64 130h402v0z" />
    <glyph glyph-name="H" unicode="H" horiz-adv-x="667" 
d="M35 0v700h146v-700h-146zM488 700h144v-700h-144v279h-224l-66 130h290v291z" />
    <glyph glyph-name="I" unicode="I" horiz-adv-x="216" 
d="M35 700h146v-700h-146v700v0z" />
    <glyph glyph-name="J" unicode="J" horiz-adv-x="458" 
d="M428 700v-130h-272l-69 130h341zM287 550l141 -77v-240q0 -48 -18.5 -90t-50 -74t-74.5 -50.5t-92 -18.5h-158v139h158q20 0 37 7.5t30 20.5t20 30t7 36v317z" />
    <glyph glyph-name="K" unicode="K" horiz-adv-x="620" 
d="M283 174l57 157l255 -331h-179zM595 700l-414 -537v-163h-146v700h146v-307l235 307h179z" />
    <glyph glyph-name="L" unicode="L" horiz-adv-x="519" 
d="M35 0v700h140v-700h-140zM196 140h308v-140h-230z" />
    <glyph glyph-name="M" unicode="M" horiz-adv-x="717" 
d="M574 700h108v-90l-323 -487l-183 275v-398h-141v700h108l216 -325zM541 0v368l141 97v-465h-141z" />
    <glyph glyph-name="N" unicode="N" horiz-adv-x="667" 
d="M181 700l451 -650v-50h-146l-305 440v-440h-146v700h146zM486 700h146v-524l-146 105v419z" />
    <glyph glyph-name="O" unicode="O" horiz-adv-x="748" 
d="M374 709q74 0 138 -28.5t111 -77t73.5 -114t26.5 -139.5q0 -63 -19 -120t-54 -103t-83.5 -78.5t-106.5 -46.5l-70 119q42 3 76.5 22.5t59.5 50t39 71t14 85.5q0 47 -15.5 89t-42.5 73t-64.5 49t-82.5 18t-82.5 -18t-65 -49t-43 -73t-15.5 -89t15.5 -89t43 -73t65 -49
t82.5 -18v-130q-74 0 -138 28t-111 77t-73.5 114.5t-26.5 139.5t26.5 139.5t73.5 114t111 77t138 28.5z" />
    <glyph glyph-name="P" unicode="P" horiz-adv-x="624" 
d="M351 700q51 0 96 -19.5t79 -53t53.5 -78.5t19.5 -96t-19.5 -96t-53.5 -78t-79 -52.5t-96 -19.5h-78l-76 140h154q22 0 41.5 8.5t33.5 24t22.5 37t8.5 47.5q0 22 -8.5 42.5t-22.5 36.5t-33.5 26t-41.5 10h-177v-579h-139v700h316v0z" />
    <glyph glyph-name="Q" unicode="Q" horiz-adv-x="769" 
d="M374 443q18 -18 45.5 -46t60.5 -61l68.5 -68.5t69.5 -69t64 -63t51 -50.5v-180l-151 151q-45 -31 -97.5 -48t-110.5 -17q-75 0 -138.5 28t-110.5 77t-73.5 114t-26.5 140q0 74 26.5 139.5t73.5 114t110.5 76.5t138.5 28t140.5 -28t114 -76.5t77 -114t28.5 -139.5
q0 -27 -4 -53t-12 -50l-144 20q8 20 12 40t4 43q0 47 -17 89t-46.5 73t-68.5 49t-84 18t-82.5 -18t-64.5 -49t-42.5 -73t-15.5 -89q0 -48 15.5 -90t42.5 -73.5t64.5 -49.5t82.5 -18q30 0 58.5 9t53.5 25l-112 112v178v0z" />
    <glyph glyph-name="R" unicode="R" horiz-adv-x="625" 
d="M615 0h-178l-107 132l117 76zM456 230q-24 -11 -44.5 -16t-50 -6.5t-73 -1t-112.5 0.5v-207h-141v700h317q51 0 95.5 -19.5t78 -53t53 -79t19.5 -96.5q0 -75 -39.5 -134t-102.5 -88zM176 347h176q45 0 76 31.5t31 84.5q0 22 -8.5 42.5t-23 36.5t-34 25.5t-41.5 9.5h-176
v-227v-1v-2z" />
    <glyph glyph-name="S" unicode="S" horiz-adv-x="598" 
d="M352 409q48 -13 88.5 -29t70 -39t46 -55t16.5 -76v-3q0 -48 -19.5 -88t-54 -68.5t-81 -44t-101.5 -15.5q-51 0 -97.5 12.5t-84.5 33t-66.5 46.5t-43.5 54l117 74q19 -21 38 -37.5t40 -28t46 -17.5t55 -6q19 0 38.5 4t35.5 13t26 22.5t10 33.5q0 14 -7 27t-24 25.5t-46 24
t-73 22.5q-54 13 -97 29.5t-73 40t-46 56.5t-16 78q0 49 18.5 88.5t51.5 66.5t77.5 41.5t95.5 14.5q53 0 96 -12t77 -30.5t59.5 -42t42.5 -45.5l-115 -74q-43 41 -81.5 57.5t-80.5 16.5q-26 0 -44.5 -6.5t-30.5 -16t-18.5 -21.5t-6.5 -23q0 -20 10.5 -34.5t31 -26.5t51 -22
t69.5 -20z" />
    <glyph glyph-name="T" unicode="T" horiz-adv-x="606" 
d="M375 700v0v0v-700h-144v578h-206v122h350zM396 700h185v-122h-124z" />
    <glyph glyph-name="U" unicode="U" horiz-adv-x="664" 
d="M172 289q0 -36 12.5 -67.5t34.5 -55t51.5 -37.5t62.5 -14v-123q-63 0 -118 23.5t-96.5 64.5t-65 96t-23.5 118v406h142v-406v-2v-3zM634 700v-406q0 -53 -17.5 -100.5t-48 -86t-72.5 -66t-91 -40.5l-62 115q31 2 58 16.5t47.5 38t32 54t11.5 64.5q0 1 -0.5 1.5t-0.5 1.5
q0 3 0.5 1t0.5 3.5v24v63v120.5v196h142z" />
    <glyph glyph-name="V" unicode="V" horiz-adv-x="746" 
d="M161 700l202 -490l-111 -97l-242 587h151zM585 700h151l-287 -700h-150z" />
    <glyph glyph-name="W" unicode="W" horiz-adv-x="927" 
d="M774 700h143l-171 -700h-183l-100 426l-98 -426h-146l173 700v0h143h1l119 -577zM153 700l112 -459l-110 -139l-145 598h143z" />
    <glyph glyph-name="X" unicode="X" horiz-adv-x="676" 
d="M422 351l244 -351h-171l-157 228l-85 123l-241 349h170l156 -255l155 255h171zM10 0l190 274l126 -64l-146 -210h-170z" />
    <glyph glyph-name="Y" unicode="Y" horiz-adv-x="672" 
d="M179 700l146 -294l-108 -90l-207 384h169zM491 700h171l-254 -468v-232h-146v232l-1 2l74 151z" />
    <glyph glyph-name="Z" unicode="Z" horiz-adv-x="680" 
d="M35 124h604v-124h-604v124zM60 700h585v-137l-406 -419l-124 75l346 357h-401v124z" />
    <glyph glyph-name="bracketleft" unicode="[" horiz-adv-x="276" 
d="M246 -55h-216v808h216v-126h-90v-556h90v-126v0z" />
    <glyph glyph-name="backslash" unicode="\" horiz-adv-x="521" 
d="M426 -60l-396 828h65l396 -828h-65v0z" />
    <glyph glyph-name="bracketright" unicode="]" horiz-adv-x="276" 
d="M30 71h90v556h-90v126h216v-808h-216v126z" />
    <glyph glyph-name="asciicircum" unicode="^" horiz-adv-x="557" 
d="M179 354h-149l172 346h3h147h2l173 -346h-149l-98 226l-101 -226v0z" />
    <glyph glyph-name="underscore" unicode="_" horiz-adv-x="446" 
d="M416 -142h-386v70h386v-70v0z" />
    <glyph glyph-name="grave" unicode="`" horiz-adv-x="228" 
d="M198 593h-100l-68 106h124l44 -106v0z" />
    <glyph glyph-name="a" unicode="a" horiz-adv-x="607" 
d="M567 500v-500h-131v250q0 29 -11 54t-30.5 44t-45 29.5t-53.5 10.5q-29 0 -54 -11t-44.5 -29.5t-30.5 -44t-11 -54.5q0 -28 11 -53t30.5 -44t44.5 -30t54 -11q31 0 53 11h1v-2l50 -89l-1 -1q-49 -38 -121 -38q-53 0 -100 20t-82 55t-55.5 82t-20.5 100q0 54 20.5 101
t55.5 82t82 55.5t100 20.5q52 0 91 -19.5t67 -56.5v68h131z" />
    <glyph glyph-name="b" unicode="b" horiz-adv-x="597" 
d="M319 506q53 0 100 -20t82 -55t55.5 -82t20.5 -100t-20.5 -100t-55.5 -82t-82 -55t-100 -20q-103 0 -157 76v-68h-132v700h133v-451q0 -29 11 -54t29.5 -43.5t44 -29.5t54.5 -11q28 0 53.5 11t44 29.5t29.5 43.5t11 54t-11 54t-29.5 44t-44 29.5t-53.5 10.5q-27 0 -54 -11
l-1 -1l-1 2l-49 90l1 1q49 38 121 38z" />
    <glyph glyph-name="c" unicode="c" horiz-adv-x="513" 
d="M395 191l108 -71l-1 -1q-35 -60 -94.5 -94t-128.5 -34q-54 0 -101 20.5t-82 55.5t-55.5 82t-20.5 100t20.5 100t55.5 82t82 55.5t101 20.5q69 0 128.5 -34t94.5 -94l1 -1l-109 -71l-1 1q-16 37 -46.5 60t-67.5 23q-27 0 -50.5 -11.5t-40.5 -31t-27 -45t-10 -54.5t10 -54
t27 -43.5t40.5 -29t50.5 -10.5q37 0 67.5 20.5t46.5 57.5l1 2z" />
    <glyph glyph-name="d" unicode="d" horiz-adv-x="597" 
d="M567 700v-700h-133l1 251q0 28 -11.5 53t-30 43.5t-44 29t-54.5 10.5t-54 -10.5t-43.5 -29.5t-29.5 -44t-11 -54t11 -54t29.5 -43.5t43.5 -29.5t54 -11q14 0 28 2t26 8h1h1l49 -90l-1 -1q-49 -38 -120 -38q-54 0 -101 20t-82 55t-55.5 82t-20.5 100t20.5 100t55.5 82
t82 55t101 20q102 0 156 -76v270h132z" />
    <glyph glyph-name="e" unicode="e" 
d="M280 508q53 0 100 -20.5t82 -55.5t55.5 -82t20.5 -101q0 -29 -6 -56l-1 -2h-254l-64 102h190q-14 42 -46.5 69t-76.5 27q-27 0 -51 -11t-41.5 -29.5t-27.5 -44t-10 -55.5q0 -23 9 -47.5t26 -44.5t41 -33.5t54 -13.5q27 0 49.5 7.5t42.5 33.5l1 1l2 -1l116 -51l-2 -2
q-36 -50 -91.5 -78t-117.5 -28q-54 0 -101.5 20t-82.5 55t-55.5 82t-20.5 100q0 54 20.5 101t55.5 82t82.5 55.5t101.5 20.5z" />
    <glyph glyph-name="f" unicode="f" horiz-adv-x="408" 
d="M241 414h147v-111h-85h-1zM388 700v-117h-109q-26 0 -40 -20t-14 -55v-508h-133v303h-72v111h72v100q0 38 14.5 72t40 59.5t59.5 40t73 14.5h109z" />
    <glyph glyph-name="g" unicode="g" horiz-adv-x="602" 
d="M572 500v-443q-3 -56 -25 -104.5t-58.5 -84t-85.5 -56t-104 -20.5q-74 0 -137.5 36.5t-100.5 99.5l-1 2l1 1l110 48q10 -18 25.5 -31.5t33 -22t36 -13t35.5 -4.5q26 0 51 11t44.5 32t31 50t11.5 65v183q0 29 -11.5 54.5t-31 44t-45 29.5t-54.5 11t-54.5 -11t-44.5 -29.5
t-30 -44t-11 -54.5t11 -54t30 -44t44.5 -30t54.5 -11q31 0 54 11h1l1 -1l50 -89l-1 -1q-49 -40 -121 -40q-54 0 -102 20.5t-83 55.5t-55.5 82.5t-20.5 100.5q0 54 20.5 101t55.5 82t83 55.5t102 20.5q102 0 158 -77v69h133z" />
    <glyph glyph-name="h" unicode="h" horiz-adv-x="575" 
d="M41 700h134l-1 -700h-134zM500 440q45 -60 45 -190v-250h-134v250q0 27 -1.5 52t-10.5 44t-29 30t-57 11q-29 0 -63 -16l-1 -1l-1 2l-48 86l1 1q26 23 58 34.5t70 11.5q121 0 171 -65z" />
    <glyph glyph-name="i" unicode="i" horiz-adv-x="193" 
d="M30 0v500h133v-500h-133zM30 700h133v-117h-133v117z" />
    <glyph glyph-name="j" unicode="j" horiz-adv-x="332" 
d="M302 700v-117h-131v117h131zM170 500h132v-544q0 -39 -14.5 -73t-40 -59.5t-59.5 -40t-72 -14.5h-44v1l-72 130h116q23 0 38.5 16.5t15.5 39.5v544z" />
    <glyph glyph-name="k" unicode="k" horiz-adv-x="562" 
d="M539 500q-94 -93 -171 -170l-206 -206v-124h-132v700h132v-403l212 203h165zM299 235q46 -46 74.5 -74t46.5 -46l28.5 -28.5t21.5 -21t25.5 -25.5t40.5 -40h-164l-1 1l-108 108z" />
    <glyph glyph-name="l" unicode="l" horiz-adv-x="193" 
d="M31 700h132v-700h-133l1 700v0z" />
    <glyph glyph-name="m" unicode="m" horiz-adv-x="772" 
d="M30 500h133v-500h-133v500zM572 508q47 0 79.5 -18.5t52.5 -48.5t29 -67.5t9 -75.5v-298h-133l1 298q0 16 -6 30t-16.5 25t-25 17.5t-30.5 6.5q-33 0 -56 -23.5t-23 -55.5v-298h-133v298q0 16 -6 30t-17 25t-25.5 17t-32.5 6q-1 0 -9 15t-18 33q-11 21 -27 48l1 2
q43 34 95 34q56 0 91 -25t54 -62q4 7 8 12q28 37 63.5 56t74.5 19z" />
    <glyph glyph-name="n" unicode="n" horiz-adv-x="564" 
d="M30 500h136v-500h-136v500zM492 442q25 -31 36 -78t11 -116v-248h-136v248q0 28 -1.5 53.5t-10.5 45t-29 30.5t-57 11q-35 0 -65 -15v-1l-1 1l-49 87l1 1q52 47 130 47q120 0 171 -66z" />
    <glyph glyph-name="o" unicode="o" 
d="M279 508q54 0 101 -20.5t82 -55.5t55.5 -82t20.5 -100t-20.5 -100t-55.5 -82t-82 -55.5t-101 -20.5t-101 20.5t-82 55.5t-55.5 82t-20.5 100t20.5 100t55.5 82t82 55.5t101 20.5zM279 111q25 0 46.5 11t38 30.5t26 45t9.5 55.5q0 28 -9.5 53.5t-26 44t-38 29.5t-46.5 11
t-47 -11t-38.5 -29.5t-26 -44t-9.5 -53.5q0 -30 9.5 -55.5t26 -45t38.5 -30.5t47 -11z" />
    <glyph glyph-name="p" unicode="p" horiz-adv-x="605" 
d="M323 508q54 0 102 -20.5t83.5 -56t56 -82.5t20.5 -101q0 -55 -20.5 -103t-56 -83.5t-83.5 -56t-102 -20.5q-74 0 -123 40v1l50 92l1 -1q27 -12 55 -12q29 0 55 11t45.5 30.5t30.5 45.5t11 56q0 29 -11 54.5t-30.5 44.5t-45.5 30t-55 11q-30 0 -55.5 -11t-44.5 -30
t-30 -44.5t-11 -54.5v-448h-135v700h135v-68q54 76 158 76z" />
    <glyph glyph-name="q" unicode="q" horiz-adv-x="606" 
d="M576 500v-700h-135v261v187q0 29 -11 54.5t-30 44.5t-44.5 30t-55.5 11q-29 0 -55 -11t-45.5 -30t-30.5 -44.5t-11 -54.5q0 -30 11 -56t30.5 -45.5t45.5 -30.5t55 -11q26 0 54 11l1 1v-1l52 -91l-1 -1q-51 -39 -124 -39q-54 0 -101.5 20.5t-83.5 56t-56.5 83.5t-20.5 103
q0 54 20.5 101t56.5 82.5t83.5 56t101.5 20.5q52 0 92.5 -19t66.5 -57v68h135z" />
    <glyph glyph-name="r" unicode="r" horiz-adv-x="448" 
d="M438 480l-12 -20l-51 -91l-1 1q-33 19 -71 19q-26 0 -49 -8.5t-41 -24t-30.5 -36.5t-16.5 -45v-275h-136v500h136v-65q53 73 155 73q60 0 116 -28h1z" />
    <glyph glyph-name="s" unicode="s" horiz-adv-x="448" 
d="M276 297q33 -11 60.5 -22.5t48 -27.5t32 -38.5t11.5 -53.5v-1q0 -76 -50.5 -119t-141.5 -43q-57 0 -112 19.5t-103 55.5l-1 1l1 1l68 107l1 -1q30 -32 68 -48.5t81 -16.5q59 0 59 38q0 18 -19 27t-45 17q-5 2 -9.5 2.5t-9.5 2.5q-30 8 -60 17.5t-54 26t-39.5 42
t-15.5 65.5v2q0 35 13 64t37 50t58 32.5t75 11.5q48 0 97 -14.5t91 -42.5v-2l-61 -111l-1 1q-23 23 -57 36.5t-72 13.5q-7 0 -16 -1t-16.5 -5t-12.5 -10.5t-5 -18.5q0 -9 8 -16.5t20.5 -14t28 -12.5t30.5 -11q3 0 6.5 -1t6.5 -2z" />
    <glyph glyph-name="t" unicode="t" horiz-adv-x="398" 
d="M378 448v-111h-74l-62 111h136zM225 171q0 -23 16.5 -39t39.5 -16h97v-116h-97q-39 0 -73.5 14.5t-60 40t-40.5 59.5t-15 73v150h-72v111h72v181h133v-458z" />
    <glyph glyph-name="u" unicode="u" horiz-adv-x="566" 
d="M536 500v-503h-137v503h137zM326 126l48 -87v-1q-52 -46 -129 -46q-122 0 -173 66q-47 59 -47 188v254h137v-254q0 -27 1.5 -52t11 -44t29.5 -30.5t57 -11.5q17 0 33 5t30 13h2z" />
    <glyph glyph-name="v" unicode="v" horiz-adv-x="579" 
d="M153 499l129 -362l-88 -91l-184 454h143v-1zM427 500h142l-205 -500h-116l41 115z" />
    <glyph glyph-name="w" unicode="w" horiz-adv-x="738" 
d="M590 500h138l-1 -1l-134 -499h-159l-65 296l-67 -296h-103v2l100 498h1h137v0l76 -379zM149 499l69 -352l-88 -91l-1 2l-119 442h139v-1z" />
    <glyph glyph-name="x" unicode="x" horiz-adv-x="550" 
d="M10 0l134 182l122 -56l-93 -126h-163zM356 248l184 -248h-164v1l-182 246l-183 253h162l101 -170l102 170h164l-2 -1z" />
    <glyph glyph-name="y" unicode="y" horiz-adv-x="578" 
d="M185 68l-175 432h143v-1l129 -363zM568 500l-1 -2q-17 -46 -33 -89.5t-30 -81.5q-50 -140 -89.5 -240.5t-84.5 -163.5q-45 -65 -101.5 -94t-141.5 -29h-2v136h2q26 0 46.5 2t37.5 8.5t31.5 18t27.5 30.5q13 18 26 44t27 62t31 83.5t38 107.5q16 45 34 96t39 111v1h143z
" />
    <glyph glyph-name="z" unicode="z" horiz-adv-x="554" 
d="M21 118h498v-118h-499zM534 500v-130l-1 1l-284 -238l-143 61l235 198h-306v108h499z" />
    <glyph glyph-name="braceleft" unicode="{" horiz-adv-x="343" 
d="M236 472q0 -36 -12.5 -68t-33.5 -57q21 -24 33.5 -56.5t12.5 -68.5v-79q0 -32 23 -55t54 -23v-125q-42 0 -78.5 16t-64 43.5t-43.5 64.5t-16 79v79q0 25 -18.5 43t-44.5 18h-18v128h18q26 0 44.5 17.5t18.5 43.5v78q0 42 16 79.5t43.5 65t64 43.5t78.5 16v-126
q-15 0 -29 -6t-24.5 -16.5t-17 -25t-6.5 -30.5v-78z" />
    <glyph glyph-name="bar" unicode="|" horiz-adv-x="166" 
d="M30 -70v835h106v-835h-106v0z" />
    <glyph glyph-name="braceright" unicode="}" horiz-adv-x="343" 
d="M107 550q0 16 -6.5 30.5t-17 25t-24.5 16.5t-29 6v126q42 0 78.5 -16t64 -43.5t43.5 -65t16 -79.5v-78q0 -26 18.5 -43.5t44.5 -17.5h18v-128h-18q-26 0 -44.5 -18t-18.5 -43v-79q0 -42 -16 -79t-43.5 -64.5t-64 -43.5t-78.5 -16v125q31 0 54 23t23 55v79q0 36 12.5 68.5
t33.5 56.5q-21 25 -33.5 57t-12.5 68v78z" />
    <glyph glyph-name="asciitilde" unicode="~" horiz-adv-x="572" 
d="M416 276q-39 0 -77 16.5t-69 32.5q-36 19 -59 29t-38.5 11.5t-25.5 -6t-18 -22.5l-21 -38l-78 43l22 39q25 46 58.5 61t69.5 11.5t70 -19t61 -29.5q34 -18 56 -28t36.5 -12t23.5 3t17 16l25 37l73 -50l-25 -37q-22 -32 -47 -45t-54 -13z" />
    <glyph glyph-name="exclamdown" unicode="&#xa1;" horiz-adv-x="204" 
d="M102 370q-29 0 -49 20.5t-19 49.5q0 14 5.5 26.5t15 22t22 14.5t27.5 5q14 0 26.5 -5.5t22 -15t14.5 -22t5 -27.5q0 -29 -20.5 -49t-49.5 -19zM174 153v-262h-144v262l35 176h74z" />
    <glyph glyph-name="cent" unicode="&#xa2;" horiz-adv-x="540" 
d="M403 284l107 -70l-1 -1q-35 -59 -94 -93t-127 -34q-51 0 -99 20l-34 -73h-65l48 101q-49 35 -78.5 89.5t-29.5 119.5q0 52 20 98.5t55 81.5t82 55t101 20q35 0 68 -9l39 82h64l-49 -105q62 -33 99 -94l1 -1l-108 -71l-1 1q-8 17 -19 31t-25 25l-116 -242q22 -9 47 -9
q35 0 65.5 20.5t47.5 57.5l1 1zM160 343q0 -55 34 -94l110 232q-5 1 -9 1h-7q-27 0 -50.5 -11t-40.5 -30t-27 -44.5t-10 -53.5z" />
    <glyph glyph-name="sterling" unicode="&#xa3;" horiz-adv-x="693" 
d="M663 121v-121h-402h-140h-91v121h91v147h-63v122h63v121q3 46 22.5 82.5t51.5 61.5t75 38.5t93 13.5q52 0 95 -11.5t77 -30t59.5 -41.5t42.5 -45l-115 -76q-42 41 -80.5 58t-80.5 17q-26 0 -44.5 -6.5t-30.5 -16t-18 -21.5t-6 -23h-1v-121h242v-122h-242v-147h402z" />
    <glyph glyph-name="currency" unicode="&#xa4;" horiz-adv-x="494" 
d="M460 373q0 -42 -14 -77.5t-40 -64.5l58 -58l-24 -24l-58 60q-28 -23 -62 -36t-74 -13q-37 0 -72 13t-62 36l-60 -60l-22 24l58 58q-25 29 -39.5 64.5t-14.5 77.5q0 38 12.5 72.5t35.5 61.5l-52 54l22 23l54 -53q28 25 64 39t76 14q42 0 78 -14t64 -39l52 53l24 -23
l-52 -54q23 -27 35.5 -61.5t12.5 -72.5zM246 257q21 0 39 9t31.5 25t21.5 37.5t8 46.5q0 24 -8 44.5t-21.5 35.5t-31.5 24t-39 9q-20 0 -38 -9t-31.5 -24t-21 -35.5t-7.5 -44.5q0 -25 7.5 -46.5t21 -37.5t31.5 -25t38 -9z" />
    <glyph glyph-name="yen" unicode="&#xa5;" horiz-adv-x="664" 
d="M327 418l-96 -87l-201 369h158zM634 700l-234 -432h135v-60h-136v-41h136v-58h-136v-109h-135v109h-135v58h135v41h-135v60h135v1l68 138l144 293h158z" />
    <glyph glyph-name="brokenbar" unicode="&#xa6;" horiz-adv-x="167" 
d="M30 776h107v-308h-107v308zM30 -67v308h107v-308h-107z" />
    <glyph glyph-name="section" unicode="&#xa7;" horiz-adv-x="464" 
d="M439 348q0 -32 -9.5 -57.5t-26.5 -46.5q17 -16 26.5 -36t9.5 -49v-1q0 -78 -51.5 -121.5t-143.5 -43.5q-58 0 -114 20t-104 57h-1v1l70 109v-1q64 -67 153 -67q59 0 59 38q0 20 -19 29t-45 17q-5 2 -10.5 3t-11.5 3q-30 7 -60.5 17t-54.5 26.5t-39.5 42t-15.5 65.5v3
q0 57 34 99q-16 17 -25 38t-9 52v1q0 36 13.5 66t38 51.5t58.5 33t76 11.5q48 0 97.5 -15t92.5 -44v-1l-61 -113l-2 1q-23 25 -57.5 38.5t-72.5 13.5q-7 0 -16 -1t-16.5 -5t-13 -10.5t-5.5 -18.5q0 -10 8 -17.5t20.5 -14.5t28.5 -12.5t32 -11.5q3 -1 6.5 -1.5t6.5 -2.5
q33 -11 61 -22.5t49 -27.5t32.5 -38.5t11.5 -53.5v-3zM183 360q0 -9 8 -16.5t20.5 -14t28 -12.5t31.5 -11q36 6 36 37q0 18 -19 27.5t-45 16.5q-5 2 -10.5 3t-11.5 3q-1 1 -4 1q-13 -2 -23.5 -9.5t-10.5 -24.5z" />
    <glyph glyph-name="dieresis" unicode="&#xa8;" horiz-adv-x="488" 
d="M178 634q-1 -30 -22.5 -52t-52.5 -22q-29 0 -51 22t-22 52q1 30 22.5 52t51.5 21q30 0 52 -21.5t22 -51.5zM458 634q0 -30 -22 -52t-52 -22q-31 0 -52.5 22t-21.5 52t22 52t53 21q30 0 51.5 -21.5t21.5 -51.5z" />
    <glyph glyph-name="copyright" unicode="&#xa9;" horiz-adv-x="777" 
d="M385 457q-21 0 -39.5 -8.5t-32 -23.5t-21 -35t-7.5 -42q0 -23 7.5 -42.5t21 -33.5t32 -22.5t39.5 -8.5q28 0 51.5 16.5t36.5 44.5l1 1v-1l85 -54l-1 -1q-27 -47 -73 -73t-100 -26q-42 0 -78.5 15.5t-63.5 42.5t-43 63.5t-16 78.5q0 41 16 77.5t43 63.5t63.5 42.5
t78.5 15.5q54 0 100 -26t73 -73h1l-85 -56l-1 2q-13 27 -36.5 45t-51.5 18zM641 603q52 -51 79 -116.5t27 -137.5t-27 -136.5t-79 -115.5q-51 -51 -116 -78.5t-137 -27.5t-137 27.5t-116 78.5t-78 115.5t-27 136.5q0 74 28.5 139.5t77.5 114t113.5 77t138.5 28.5
q73 0 137.5 -27t115.5 -78zM621 117q47 48 72 107.5t25 124.5q0 66 -25 126t-72 107t-107 72t-126 25q-68 0 -127.5 -26t-104 -71t-70.5 -105t-27 -128q0 -65 25 -124.5t73 -106.5q46 -48 106 -73t125 -25q66 0 125.5 25t107.5 72z" />
    <glyph glyph-name="guillemotleft" unicode="&#xab;" horiz-adv-x="519" 
d="M357 509h132l-112 -180l112 -178h-132l-111 178zM142 509h132l-113 -180l113 -178h-132l-112 178z" />
    <glyph glyph-name="registered" unicode="&#xae;" horiz-adv-x="776" 
d="M454 270l89 -111h-95l-57 71zM459 281q-25 -11 -56 -11h-84v-110h-75v110l1 77l1 187l159 -1q27 0 51 -10.5t42 -28.5t28 -42t10 -51q0 -40 -21.5 -72t-55.5 -48zM320 345h84q24 0 40.5 16.5t16.5 44.5q1 24 -15.5 42.5t-41.5 19.5h-83l-1 -121v-1v-1zM390 705
q74 0 139 -28.5t113 -77t75.5 -114t27.5 -139.5q-1 -72 -28.5 -136.5t-78.5 -115.5t-116 -77t-137 -26q-72 1 -136 28t-115 78t-77.5 116.5t-25.5 137.5q0 73 28.5 138t77.5 113t114 76t139 27zM618 115q46 47 71.5 106t26.5 125q0 68 -25.5 128t-69.5 104.5t-104 71
t-127 26.5q-68 0 -128 -25.5t-104.5 -69.5t-71 -103.5t-26.5 -127.5q-1 -66 23.5 -125.5t70.5 -106.5q47 -47 106 -72t125 -26h1q66 0 125 24.5t107 70.5z" />
    <glyph glyph-name="degree" unicode="&#xb0;" horiz-adv-x="324" 
d="M161 570q-27 0 -50.5 10.5t-41.5 28.5t-28.5 42.5t-10.5 51.5t10.5 50.5t28.5 41.5t41.5 28.5t50.5 10.5t51.5 -10.5t42.5 -28.5t28.5 -41.5t10.5 -50.5t-10.5 -51.5t-28.5 -42.5t-42.5 -28.5t-51.5 -10.5zM161 757q-22 0 -38 -16t-16 -38q0 -23 16 -39.5t38 -16.5
q23 0 39.5 16.5t16.5 39.5q0 22 -16.5 38t-39.5 16z" />
    <glyph glyph-name="plusminus" unicode="&#xb1;" horiz-adv-x="364" 
d="M220 453h114v-78h-114v-97h-76v97h-114v78h114v98h76v-98zM30 151v77h304v-77h-304z" />
    <glyph glyph-name="acute" unicode="&#xb4;" horiz-adv-x="242" 
d="M139 587h-109l48 115h134z" />
    <glyph glyph-name="mu" unicode="&#xb5;" horiz-adv-x="702" 
d="M672 124l-1 -126h-131h-5q-27 0 -51 10t-41.5 28t-28 41.5t-10.5 50.5v371h136v-315q0 -24 17 -43q17 -17 41 -17h74zM330 127l48 -88q-52 -46 -130 -46q-48 0 -81 10v-203h-137v476v223h137v-252q0 -27 1.5 -52.5t10.5 -44.5t29 -30.5t57 -11.5q17 0 33 5t30 13z" />
    <glyph glyph-name="paragraph" unicode="&#xb6;" horiz-adv-x="574" 
d="M544 700v-2v-319v-131v-189v-182h-85v710h-75v-710h-85v371h-44q-47 0 -87.5 17.5t-71.5 48t-48.5 71.5t-17.5 88q0 46 17.5 87t48.5 72t71.5 48.5t87.5 17.5h44v2h245zM544 700v-2v-319v-131v-189v-182h-85v710h-75v-710h-85v371h-44q-47 0 -87.5 17.5t-71.5 48
t-48.5 71.5t-17.5 88q0 46 17.5 87t48.5 72t71.5 48.5t87.5 17.5h44v2h245z" />
    <glyph glyph-name="periodcentered" unicode="&#xb7;" horiz-adv-x="214" 
d="M183 355q-1 -32 -23 -54.5t-54 -21.5q-32 0 -54 22.5t-21 53.5q0 32 22 54.5t54 22.5q32 -1 54.5 -23t21.5 -54z" />
    <glyph glyph-name="guillemotright" unicode="&#xbb;" horiz-adv-x="519" 
d="M162 509l111 -180l-111 -178h-132l112 178l-112 180h132zM377 509l112 -180l-112 -178h-132l113 178l-113 180h132z" />
    <glyph glyph-name="onequarter" unicode="&#xbc;" horiz-adv-x="731" 
d="M569 194v37h80v-77zM665 146h36v-73h-52v-70h-80v70h-182v72l128 258h90l-125 -257h22h67h80h16zM213 697v-46l-140 -90l-43 67l103 69h80zM213 296h-81v297l81 10v-307zM521 708h65l-394 -716h-63z" />
    <glyph glyph-name="onehalf" unicode="&#xbd;" horiz-adv-x="767" 
d="M737 2h-288v70h129h27h132v-70zM586 323q-21 0 -37 -12t-24 -31l-76 21q14 45 51 73.5t86 28.5q31 0 57.5 -10t46 -28t30.5 -42.5t11 -52.5q0 -23 -12.5 -47.5t-32.5 -48.5t-45.5 -48t-52.5 -46l-82 36q3 2 8 7q21 18 45 38t44.5 40t33.5 38t13 31q0 26 -20 39.5
t-44 13.5zM213 651l-139 -90l-44 66l104 70h79v-46zM132 296v297l81 10v-307h-81zM587 708l-394 -717h-64l393 717h65z" />
    <glyph glyph-name="threequarters" unicode="&#xbe;" horiz-adv-x="776" 
d="M46 627v70h259v-70h-98h-161zM305 436q0 -29 -11 -54.5t-30.5 -44.5t-45 -30t-54.5 -11q-47 0 -83.5 27.5t-50.5 69.5l77 25q3 -18 16.5 -33t40.5 -15q31 0 46 20t15 46t-17.5 43.5t-43.5 17.5h-39v60l75 63l81 -36l-37 -31q28 -20 44.5 -50t16.5 -67zM614 231h80v-77
l-80 40v37zM746 146v-73h-52v-70h-80v70h-182v72l128 258h90l-125 -257h22h67h80h16h36zM631 708l-393 -716h-64l392 716h65z" />
    <glyph glyph-name="questiondown" unicode="&#xbf;" horiz-adv-x="554" 
d="M286 350q-32 0 -55.5 23.5t-23.5 56.5q0 16 6.5 30.5t17 25t25 16.5t30.5 6q33 0 56.5 -23.5t23.5 -55.5q0 -33 -23.5 -56.5t-56.5 -22.5zM524 -78q-17 -22 -42 -45t-59 -41.5t-77 -30.5t-95 -12q-104 0 -162.5 55t-58.5 155v3q0 44 14 72.5t35 49.5t45.5 37t45.5 34.5
t35 43t14 61.5h142v-12v-1q0 -52 -15 -85t-37 -54.5t-48.5 -36t-48.5 -30.5t-37 -38t-15 -58q0 -28 23 -46.5t59.5 -21t80.5 14.5t86 61z" />
    <glyph glyph-name="Agrave" unicode="&#xc0;" horiz-adv-x="775" 
d="M548 125h-322l-51 -125h-150l286 700h151l-185 -450h220l-104 249l109 104l248 -603h-152zM370 770l-73 116h132l48 -116h-107z" />
    <glyph glyph-name="Aacute" unicode="&#xc1;" horiz-adv-x="776" 
d="M601 0l-52 126h-320l-51 -126h-153l288 702h151l-185 -452h219l-102 250l108 105l247 -605h-150zM496 889l-73 -116h-109l48 116h134z" />
    <glyph glyph-name="Acircumflex" unicode="&#xc2;" horiz-adv-x="776" 
d="M353 906h71h1l84 -135h-85l-34 67l-37 -67h-86l84 135h2zM600 0h151l-248 604l-108 -104l103 -251h-220q11 26 26.5 64t33.5 81t36.5 88.5t35.5 87t31 75.5t23 55h-151l-288 -700h151l51 125h322z" />
    <glyph glyph-name="Atilde" unicode="&#xc3;" horiz-adv-x="775" 
d="M548 124h-321l-51 -124h-151l287 700h151q-9 -21 -23 -55.5t-31 -75.5t-35.5 -86.5t-36 -88.5t-33 -81t-26.5 -64h219l-103 251l108 104l248 -604h-151zM258 778l-57 33l17 29q18 36 42.5 47t50.5 8.5t50.5 -14.5t44.5 -23q24 -13 40.5 -20.5t27 -9t17 2t11.5 12.5l17 28
l55 -37l-19 -28q-16 -26 -34.5 -35.5t-38.5 -9.5q-29 0 -56 12.5t-50 25.5q-26 14 -43 21.5t-28 8.5t-18 -4.5t-13 -16.5z" />
    <glyph glyph-name="Adieresis" unicode="&#xc4;" horiz-adv-x="775" 
d="M549 125h-321l-51 -125h-152l287 700h152l-186 -451h219l-103 251l109 104l247 -604h-150zM293 768q-25 0 -42 18t-17 43q0 26 17.5 43.5t42.5 17.5q26 0 43.5 -18t17.5 -43q-1 -26 -18.5 -43.5t-43.5 -17.5zM481 768q-25 0 -42.5 18t-17.5 43q0 26 18 43.5t43 17.5
q26 0 43.5 -18t16.5 -43q0 -26 -17.5 -43.5t-43.5 -17.5z" />
    <glyph glyph-name="Aring" unicode="&#xc5;" horiz-adv-x="756" 
d="M535 121h-313l-50 -121h-147l280 682h2q-14 14 -22.5 33.5t-8.5 40.5t8 40.5t22.5 33.5t33.5 22.5t40 8.5q22 0 41 -8.5t33 -22.5t22.5 -33.5t8.5 -40.5q0 -46 -35 -78l-178 -435h212l-100 243l106 101l241 -587h-148zM380 799q-17 0 -29.5 -13t-12.5 -30t12.5 -30
t29.5 -13t30 13t13 30t-13 30t-30 13z" />
    <glyph glyph-name="AE" unicode="&#xc6;" horiz-adv-x="1027" 
d="M919 410v-130h-167l-63 130h230zM601 700h401v-140h-401v140zM503 604l191 -464h308v-140h-252v0h-150l-51 124h-322l-51 -124h-151l288 700h151l-185 -450h219l-103 251z" />
    <glyph glyph-name="Egrave" unicode="&#xc8;" horiz-adv-x="530" 
d="M416 282h-166l-64 127h230v-127zM500 700v-140h-330v-420h330v-140h-330v0h-140v700h66h74h330zM356 771h-109l-72 116h133z" />
    <glyph glyph-name="Eacute" unicode="&#xc9;" horiz-adv-x="530" 
d="M417 281h-167l-64 129h231v-129zM500 700v-140h-330v-420h330v-140h-330v0h-140v700h68h72h330zM356 887l-73 -115h-109l48 115h134z" />
    <glyph glyph-name="Ecircumflex" unicode="&#xca;" horiz-adv-x="530" 
d="M416 279h-167l-63 130h230v-130zM500 699v-139h-330v-420h330v-140h-330v0h-140v699h67h73h330zM266 838l-37 -67h-86l84 134h2h71h1l85 -134h-86z" />
    <glyph glyph-name="Edieresis" unicode="&#xcb;" horiz-adv-x="529" 
d="M250 280l-64 129h230v-129h-166zM499 559h-329v-419h329v-140h-329h-140v698h67h73h329v-139zM170 766q-25 1 -42.5 18.5t-17.5 43.5q0 25 18 42.5t43 17.5q26 0 43.5 -18t17.5 -43q-1 -26 -18.5 -43.5t-43.5 -17.5zM357 766q-25 1 -42.5 18.5t-17.5 43.5q0 25 18 42.5
t43 17.5q26 0 43.5 -18t17.5 -43q-1 -26 -18.5 -43.5t-43.5 -17.5z" />
    <glyph glyph-name="Igrave" unicode="&#xcc;" horiz-adv-x="251" 
d="M77 700h144v-700h-144v700zM211 771h-108l-73 115h133z" />
    <glyph glyph-name="Iacute" unicode="&#xcd;" horiz-adv-x="261" 
d="M30 0v700h144v-700h-144zM231 886l-73 -115h-108l48 115h133z" />
    <glyph glyph-name="Icircumflex" unicode="&#xce;" horiz-adv-x="301" 
d="M78 0v700h146v-700h-146zM152 836l-36 -68h-86l84 135h2h70h1l84 -135h-85z" />
    <glyph glyph-name="Idieresis" unicode="&#xcf;" horiz-adv-x="368" 
d="M113 700h144v-700h-144v700zM151 828q0 -25 -18 -42.5t-42 -17.5q-26 0 -43.5 18t-16.5 42q0 26 17.5 43.5t43.5 17.5q24 0 41.5 -18t17.5 -43zM279 889q24 0 41.5 -18t17.5 -43t-18 -42.5t-42 -17.5q-26 0 -43.5 18t-16.5 42q0 26 17.5 43.5t43.5 17.5z" />
    <glyph glyph-name="Eth" unicode="&#xd0;" horiz-adv-x="829" 
d="M455 700q72 0 135.5 -27.5t111 -75t75 -111.5t27.5 -137q0 -72 -27.5 -136t-75 -111t-111 -74.5t-135.5 -27.5h-60l-66 122h126q42 0 80 17t66.5 47t45 71.5t16.5 91.5q0 49 -16.5 90.5t-45 72.5t-66.5 48.5t-80 17.5h-163v-167h130v-122h-130v-289h-140v289h-142v122
h142v289h91h49h163v0z" />
    <glyph glyph-name="Ntilde" unicode="&#xd1;" horiz-adv-x="660" 
d="M630 50v-50h-147l-307 442v-442h-146v701h146l307 -442zM629 700v-524l-146 104v420h146zM201 778l-57 32l15 30q19 35 43.5 46.5t50.5 8.5t51.5 -15t45.5 -23q24 -13 39.5 -20t26 -8.5t17 2t11.5 11.5l18 28l54 -37l-17 -29q-17 -24 -36.5 -34t-39.5 -10q-26 0 -54 13
t-50 24q-26 15 -43 22.5t-28.5 8.5t-18.5 -4.5t-13 -16.5z" />
    <glyph glyph-name="Ograve" unicode="&#xd2;" horiz-adv-x="747" 
d="M372 708q75 0 139 -28t111 -76.5t73.5 -114t26.5 -139.5q0 -63 -19 -120t-53.5 -102.5t-83 -78t-107.5 -47.5l-70 120q42 3 76.5 22t59.5 50t39 71t14 85q0 48 -15.5 89.5t-42.5 73t-65 49.5t-83 18q-44 0 -81.5 -18t-64.5 -49.5t-42.5 -73t-15.5 -89.5q0 -47 15.5 -88.5
t42.5 -72.5t64.5 -49t81.5 -18v-130q-74 0 -137 28t-110 77t-73.5 114t-26.5 139t26.5 139.5t73.5 114t110 76.5t137 28zM342 773l-74 116h135l49 -116h-110z" />
    <glyph glyph-name="Oacute" unicode="&#xd3;" horiz-adv-x="748" 
d="M374 709q74 0 138 -28.5t111 -77t73.5 -114t26.5 -139.5q0 -63 -19 -120t-54 -103t-83.5 -78.5t-106.5 -46.5l-70 119q42 3 76.5 22.5t59.5 50t39 71t14 85.5q0 47 -15.5 89t-42.5 73t-64.5 49t-82.5 18t-82.5 -18t-65 -49t-43 -73t-15.5 -89t15.5 -89t43 -73t65 -49
t82.5 -18v-130q-74 0 -138 28t-111 77t-73.5 114.5t-26.5 139.5t26.5 139.5t73.5 114t111 77t138 28.5zM392 772h-109l48 115h134z" />
    <glyph glyph-name="Ocircumflex" unicode="&#xd4;" horiz-adv-x="746" 
d="M374 708q74 0 137.5 -28.5t110 -77t73 -114t26.5 -139.5q0 -63 -19 -120t-53.5 -102.5t-82.5 -78t-106 -47.5l-71 119q42 4 76.5 23t59.5 50t39 71t14 85q0 47 -15.5 89t-42.5 73t-64.5 49t-81.5 18q-45 0 -82.5 -18t-64.5 -49t-42.5 -73t-15.5 -89t15.5 -88.5t42.5 -73
t64.5 -49.5t82.5 -18v-129q-75 0 -138.5 28t-110.5 77t-73.5 114t-26.5 139t26.5 139.5t73.5 114t110.5 77t138.5 28.5zM337 772h-85l83 135h3h70h2l85 -135h-85l-35 67z" />
    <glyph glyph-name="Otilde" unicode="&#xd5;" horiz-adv-x="745" 
d="M373 708q74 0 137.5 -28t110 -76.5t73 -114t26.5 -139.5q0 -63 -19 -119.5t-53.5 -102t-83 -78t-106.5 -47.5l-70 120q42 3 76.5 22t60 49.5t39.5 70.5t14 85q0 47 -15.5 89t-43 73t-65 49t-81.5 18q-45 0 -82.5 -18t-64.5 -49t-42.5 -73t-15.5 -89t15.5 -88.5
t42.5 -72.5t64.5 -49t82.5 -18v-129q-74 0 -138 28t-110.5 76.5t-73 113.5t-26.5 139t26.5 139.5t73 114t110.5 76.5t138 28zM243 780l-57 32l16 29q19 36 43.5 47.5t50.5 8.5t51 -15t44 -23q24 -13 40.5 -20t27 -8.5t17 2t12.5 11.5l17 28l55 -37l-19 -28
q-16 -25 -34.5 -34.5t-39.5 -9.5q-28 0 -55.5 12t-49.5 26q-26 14 -43.5 21t-28.5 8t-18.5 -4.5t-13.5 -16.5z" />
    <glyph glyph-name="Odieresis" unicode="&#xd6;" horiz-adv-x="748" 
d="M374 709q74 0 138 -28.5t111 -77t73.5 -114t26.5 -139.5q0 -63 -19 -120t-54 -103t-83.5 -78.5t-106.5 -46.5l-70 119q42 3 76.5 22.5t59.5 50t39 71t14 85.5q0 47 -15.5 89t-42.5 73t-64.5 49t-82.5 18t-82.5 -18t-65 -49t-43 -73t-15.5 -89t15.5 -89t43 -73t65 -49
t82.5 -18v-130q-74 0 -138 28t-111 77t-73.5 114.5t-26.5 139.5t26.5 139.5t73.5 114t111 77t138 28.5zM308 819q-1 -30 -22.5 -52t-52.5 -22q-29 0 -51 22t-22 52q1 30 22.5 52t51.5 21q30 0 52 -21.5t22 -51.5zM588 819q0 -30 -22 -52t-52 -22q-31 0 -52.5 22t-21.5 52
t22 52t53 21q30 0 51.5 -21.5t21.5 -51.5z" />
    <glyph glyph-name="Ugrave" unicode="&#xd9;" horiz-adv-x="664" 
d="M172 289q0 -36 12.5 -67.5t34.5 -55t51.5 -37.5t62.5 -14v-123q-63 0 -118 23.5t-96.5 64.5t-65 96t-23.5 118v406h142v-406v-2v-3zM634 700v-406q0 -53 -17.5 -100.5t-48 -86t-72.5 -66t-91 -40.5l-62 115q31 2 58 16.5t47.5 38t32 54t11.5 64.5q0 1 -0.5 1.5t-0.5 1.5
q0 3 0.5 1t0.5 3.5v24v63v120.5v196h142zM416 773h-100l-68 106h124l44 -106v0z" />
    <glyph glyph-name="Uacute" unicode="&#xda;" horiz-adv-x="664" 
d="M172 289q0 -36 12.5 -67.5t34.5 -55t51.5 -37.5t62.5 -14v-123q-63 0 -118 23.5t-96.5 64.5t-65 96t-23.5 118v406h142v-406v-2v-3zM634 700v-406q0 -53 -17.5 -100.5t-48 -86t-72.5 -66t-91 -40.5l-62 115q31 2 58 16.5t47.5 38t32 54t11.5 64.5q0 1 -0.5 1.5t-0.5 1.5
q0 3 0.5 1t0.5 3.5v24v63v120.5v196h142zM350 767h-109l48 115h134z" />
    <glyph glyph-name="Ucircumflex" unicode="&#xdb;" horiz-adv-x="661" 
d="M172 290q0 -36 12.5 -68t34 -55.5t51 -37t62.5 -13.5v-123q-62 0 -117 23.5t-96 64.5t-65 96t-24 118v413h142v-413v-2v-3zM631 708v-413q0 -53 -17 -100.5t-47.5 -86.5t-72 -66.5t-89.5 -39.5l-63 114q31 2 58.5 16.5t47 38t31 54t11.5 65.5v3v2v413h141zM367 777
l-34 69l-38 -69h-85l84 137h1h72h2l85 -137h-87z" />
    <glyph glyph-name="Udieresis" unicode="&#xdc;" horiz-adv-x="662" 
d="M172 289q0 -36 12.5 -67.5t34.5 -55.5t50.5 -37.5t61.5 -13.5v-123q-62 0 -116.5 24t-95.5 65t-65 95.5t-24 116.5v415h142v-415v-2v-2zM632 708v-415q0 -53 -17.5 -100.5t-48 -86t-72 -66t-89.5 -39.5l-63 115q31 2 58.5 16.5t47.5 37.5t31.5 53.5t11.5 65.5v2v2v415
h141zM236 774q-25 0 -43 18t-18 44q1 26 19 43.5t43 17.5q26 0 43.5 -18t16.5 -44q0 -26 -17.5 -43.5t-43.5 -17.5zM427 774q-26 0 -44 18t-18 44t18.5 43.5t44.5 17.5q25 0 42.5 -18t16.5 -44q0 -26 -17.5 -43.5t-42.5 -17.5z" />
    <glyph glyph-name="Yacute" unicode="&#xdd;" horiz-adv-x="672" 
d="M179 700l146 -294l-108 -90l-207 384h169zM491 700h171l-254 -468v-232h-146v232l-1 2l74 151zM354 767h-109l48 115h134z" />
    <glyph glyph-name="agrave" unicode="&#xe0;" horiz-adv-x="601" 
d="M571 500v-501h-134v252q0 28 -11 53.5t-30 44.5t-44.5 30t-54.5 11t-54.5 -11t-44 -30t-29.5 -44.5t-11 -54.5t11 -54.5t29.5 -44t44 -29.5t54.5 -11q28 0 54 10h1h1l49 -91l-1 -1q-49 -38 -121 -38q-54 0 -101 20.5t-82.5 55.5t-56 82t-20.5 101t20.5 101t56 82
t82.5 55.5t101 20.5q103 0 157 -77v68h134zM237 556l-73 115h134l49 -115h-110z" />
    <glyph glyph-name="aacute" unicode="&#xe1;" horiz-adv-x="599" 
d="M569 500l-1 -499h-131v249q0 29 -11.5 54.5t-30.5 44t-44.5 29.5t-53.5 11q-29 0 -55 -11t-45 -30t-30 -44.5t-11 -54.5q0 -28 11 -53t30 -44t45 -30t55 -11t53 10l1 1l1 -1l49 -90v-1q-50 -38 -123 -38q-53 0 -100 20.5t-82 55.5t-55.5 81.5t-20.5 99.5q0 54 20.5 101
t55.5 82t82 55.5t100 20.5q104 0 159 -76v68h132zM312 555h-109l48 115h135z" />
    <glyph glyph-name="acircumflex" unicode="&#xe2;" horiz-adv-x="598" 
d="M568 500v-500h-132v251q0 28 -11.5 53.5t-30 44t-44 29.5t-54.5 11t-54.5 -11t-44.5 -30t-30 -44.5t-11 -53.5q0 -29 11 -54.5t30 -44t44.5 -29.5t54.5 -11q28 0 53 11h2v-1l50 -90q-51 -39 -122 -39q-53 0 -100.5 20.5t-82.5 55.5t-55.5 82t-20.5 100t20.5 100t55.5 82
t82.5 55.5t100.5 20.5q103 0 157 -76v68h132zM258 555h-85l83 135h3h71h1l85 -135h-86l-35 68z" />
    <glyph glyph-name="atilde" unicode="&#xe3;" horiz-adv-x="597" 
d="M146 552l-57 32l15 30q19 35 43.5 46.5t50.5 8.5t50.5 -15t44.5 -23q24 -13 40.5 -20t27 -8.5t17 2t11.5 11.5l18 29l54 -38l-17 -27q-17 -26 -36 -35.5t-39 -9.5q-28 0 -55.5 12.5t-50.5 25.5q-26 14 -43 21t-28 8t-18 -4.5t-13 -16.5zM567 500v-499h-132v250
q0 28 -11 53.5t-29.5 44t-44 29.5t-54.5 11t-54.5 -11t-44.5 -29.5t-30 -44t-11 -54.5t11 -54t30 -44t44.5 -29.5t54.5 -10.5q27 0 54 9l1 1v-1l50 -90l-1 -1q-50 -38 -121 -38q-54 0 -101 20.5t-82 55.5t-55.5 82t-20.5 100t20.5 100t55.5 82t82 55.5t101 20.5
q101 0 156 -76v68h132z" />
    <glyph glyph-name="adieresis" unicode="&#xe4;" horiz-adv-x="598" 
d="M568 500v-499h-133v251q0 28 -11 53t-30 44t-44.5 29.5t-54.5 10.5t-54 -11t-44 -29.5t-30 -44t-11 -53.5q0 -29 11 -54.5t30 -44.5t44 -30t54 -11q27 0 55 11l1 1v-2l50 -90h-2q-50 -38 -120 -38q-54 0 -101 20t-82.5 55t-55.5 82t-20 101q0 53 20 100t55.5 82t82.5 55
t101 20q102 0 156 -76v68h133zM174 560q-26 1 -43.5 18.5t-17.5 43.5q1 24 18.5 42t43.5 17q25 0 42.5 -17.5t16.5 -42.5q0 -26 -17 -43.5t-43 -17.5zM362 560q-26 1 -43.5 18.5t-17.5 43.5q0 24 18 42t44 17q25 0 42.5 -17.5t17.5 -42.5q0 -26 -18 -43.5t-43 -17.5z" />
    <glyph glyph-name="aring" unicode="&#xe5;" horiz-adv-x="597" 
d="M567 499v-499h-132l1 251q0 28 -11.5 53t-30.5 44t-44.5 29.5t-54.5 10.5t-54 -11t-44 -29.5t-30 -44t-11 -53.5q0 -29 11 -54.5t30 -44t44 -29.5t54 -11q30 0 54 10l1 1l1 -1l49 -90l-1 -1q-49 -38 -120 -38q-54 0 -101 20.5t-82 55.5t-55.5 82t-20.5 100t20.5 99.5
t55.5 81.5t82 55.5t101 20.5q99 0 157 -76v68h131zM266 533q-36 0 -61.5 25t-25.5 62q0 18 7 33.5t18.5 27t27.5 18.5t34 7t34 -7t27.5 -18.5t18.5 -27t7 -33.5q0 -37 -25.5 -62t-61.5 -25zM266 654q-16 0 -26 -10t-10 -24q0 -15 10 -26t26 -11q14 0 24.5 11t10.5 26
q0 14 -10.5 24t-24.5 10z" />
    <glyph glyph-name="ae" unicode="&#xe6;" horiz-adv-x="976" 
d="M695 508q54 0 101.5 -20t83 -55t56 -82t20.5 -101q0 -14 -2 -28.5t-5 -28.5l-1 -1h-44h-90h-121l-63 101h188q-12 42 -45 69.5t-78 27.5q-24 0 -45 -8.5t-37.5 -24t-28 -36.5t-15.5 -45v-49q4 -21 14.5 -41.5t27 -37.5t37.5 -27.5t47 -10.5q28 0 51 8t44 33v1v-1l117 -51
l-1 -1q-37 -51 -92.5 -79t-118.5 -28q-35 0 -66 8.5t-60 24.5v-25h-133l1 248q0 1 -0.5 1t-0.5 1t1 1q-1 28 -12 53.5t-30 44t-44.5 29.5t-54.5 11t-54 -11t-44 -29.5t-30 -44t-11 -54.5t11 -54t30 -44t44 -30t54 -11q26 0 54 10l2 1v-1l50 -90l-1 -1q-48 -38 -122 -38
q-54 0 -101 20t-82 55t-55.5 82t-20.5 101t20.5 101t55.5 82t82 55t101 20q101 0 158 -75v68h132v-26q29 16 60.5 24.5t65.5 8.5z" />
    <glyph glyph-name="egrave" unicode="&#xe8;" horiz-adv-x="560" 
d="M279 508q54 0 102 -20t83 -55t55.5 -82t20.5 -101q0 -14 -2 -28t-5 -29v-1h-47h-88h-120l-64 101h188q-13 42 -45.5 69t-77.5 27q-27 0 -50.5 -11t-40.5 -29.5t-27 -44t-10 -54.5q0 -23 9 -47.5t26 -45t40.5 -34t52.5 -13.5q28 0 50.5 8t43.5 34l1 1v-1l116 -52l-1 -1
q-35 -51 -91 -79t-119 -28q-54 0 -101 20t-82 55t-55.5 82t-20.5 101t20.5 101t55.5 82t82 55t101 20zM262 547l-74 115h136l46 -115h-108z" />
    <glyph glyph-name="eacute" unicode="&#xe9;" 
d="M280 508q53 0 100 -20.5t82 -55.5t55.5 -82t20.5 -100q0 -29 -7 -56h-45h-90h-119l-63 100h186q-12 40 -44 67.5t-76 27.5q-27 0 -51 -11t-41.5 -29.5t-27.5 -44t-10 -54.5q0 -23 9.5 -47.5t26.5 -44.5t41 -33.5t53 -13.5q27 0 49.5 7.5t41.5 33.5l1 1l1 -1l116 -52
l-1 -1q-36 -51 -92 -79t-116 -28q-54 0 -101 20.5t-82.5 55.5t-56 82t-20.5 100t20.5 100t56 82t82.5 55.5t101 20.5zM298 546h-109l48 116h132z" />
    <glyph glyph-name="ecircumflex" unicode="&#xea;" 
d="M280 508q53 0 100 -20.5t82 -55.5t55.5 -81.5t20.5 -99.5q0 -29 -6 -56v-1h-46h-90h-118l-64 101h187q-13 41 -45 67.5t-76 26.5q-27 0 -51 -10.5t-41 -29t-27 -44t-10 -54.5q0 -23 9 -47.5t26 -45t40.5 -34t53.5 -13.5q27 0 49.5 8t41.5 34h1h1l116 -53
q-37 -51 -91.5 -79t-117.5 -28q-54 0 -101 20.5t-82.5 55.5t-56 82t-20.5 100t20.5 99.5t56 81.5t82.5 55.5t101 20.5zM244 547h-85l83 136h3h71h1l82 -136h-83l-34 68z" />
    <glyph glyph-name="edieresis" unicode="&#xeb;" horiz-adv-x="559" 
d="M280 508q53 0 100 -20.5t82.5 -55.5t56 -81.5t20.5 -99.5q0 -32 -7 -57h-45h-91h-118l-64 101h187q-11 42 -44 68t-77 26q-27 0 -51 -10.5t-41 -29t-27 -43.5t-10 -55q0 -23 9 -48t26 -45.5t40.5 -34t53.5 -13.5q28 0 50 8t42 35l1 1l1 -1l117 -54h-1q-37 -51 -93 -79
t-117 -28q-54 0 -101.5 20.5t-82.5 55.5t-55.5 82t-20.5 101q0 53 20.5 99.5t55.5 81.5t82.5 55.5t101.5 20.5zM185 554q-25 0 -43 17.5t-18 42.5t18 43t44 18t43 -18t17 -44q0 -25 -17.5 -42t-43.5 -17zM373 554q-25 0 -42 17.5t-17 42.5t17.5 43t42.5 18t43 -18t17 -44
q0 -25 -18 -42t-43 -17z" />
    <glyph glyph-name="igrave" unicode="&#xec;" horiz-adv-x="242" 
d="M79 0l1 500h132v-500h-133zM212 556h-108l-74 115h135z" />
    <glyph glyph-name="iacute" unicode="&#xed;" horiz-adv-x="249" 
d="M30 0v500h134v-500h-134zM219 671l-72 -115h-110l49 115h133z" />
    <glyph glyph-name="icircumflex" unicode="&#xee;" horiz-adv-x="303" 
d="M85 1v499h133v-499h-133zM151 625l-36 -68h-85l84 135h1h72h1l85 -135h-86z" />
    <glyph glyph-name="idieresis" unicode="&#xef;" horiz-adv-x="370" 
d="M118 500h133v-500h-133v500zM151 620q0 -26 -17.5 -43t-43.5 -17q-25 0 -42.5 17.5t-17.5 43.5q0 25 18 42.5t42 17.5q26 0 43.5 -18t17.5 -43zM280 681q25 0 42.5 -18t16.5 -43q0 -26 -17.5 -43t-42.5 -17q-26 0 -44 17.5t-18 43.5q0 25 18.5 42.5t44.5 17.5z" />
    <glyph glyph-name="ograve" unicode="&#xf2;" 
d="M280 508q53 0 100 -20.5t82 -56t55.5 -82.5t20.5 -100t-20.5 -99.5t-55.5 -81.5t-82 -55.5t-100 -20.5q-54 0 -101 20.5t-82.5 55.5t-56 81.5t-20.5 99.5t20.5 100t56 82.5t82.5 56t101 20.5zM280 110q25 0 47 11t38 30.5t25.5 46t9.5 56.5q0 28 -9.5 53t-25.5 43.5
t-38 29t-47 10.5q-26 0 -48 -10.5t-38 -29t-25.5 -43.5t-9.5 -53q0 -30 9.5 -56.5t25.5 -46t38 -30.5t48 -11zM261 555l-73 115h135l47 -115h-109z" />
    <glyph glyph-name="oacute" unicode="&#xf3;" 
d="M279 507q54 0 101 -20t82 -55t55.5 -82t20.5 -100t-20.5 -100t-55.5 -82t-82 -55.5t-101 -20.5q-53 0 -100.5 20.5t-82.5 55.5t-55.5 82t-20.5 100t20.5 100t55.5 82t82.5 55t100.5 20zM279 110q25 0 47.5 11t38.5 30t25.5 45.5t9.5 56.5q0 29 -9.5 54t-25.5 44
t-38.5 29.5t-47.5 10.5t-47 -10.5t-38 -29.5t-25 -44t-9 -54q0 -30 9 -56.5t25 -45.5t38 -30t47 -11zM297 555h-108l47 115h134z" />
    <glyph glyph-name="ocircumflex" unicode="&#xf4;" horiz-adv-x="557" 
d="M279 507q54 0 101 -20.5t82 -55.5t55 -81.5t20 -99.5q0 -54 -20 -101t-55 -82t-82 -55t-101 -20t-101 20t-82 55t-55.5 82t-20.5 101q0 53 20.5 99.5t55.5 81.5t82 55.5t101 20.5zM279 110q25 0 47 11t38.5 30.5t26 45.5t9.5 56q0 28 -9.5 53t-26 43.5t-38.5 29.5t-47 11
t-47 -11t-38.5 -29.5t-26 -43.5t-9.5 -53q0 -30 9.5 -56t26 -45.5t38.5 -30.5t47 -11zM243 554h-85l83 135h3h71h1l84 -135h-85l-35 68z" />
    <glyph glyph-name="otilde" unicode="&#xf5;" horiz-adv-x="559" 
d="M280 508q53 0 100 -20.5t82.5 -55.5t56 -82t20.5 -101q0 -53 -20.5 -99.5t-56 -81.5t-82.5 -55.5t-100 -20.5q-54 0 -101.5 20.5t-82.5 55.5t-55.5 81.5t-20.5 99.5q0 54 20.5 101t55.5 82t82.5 55.5t101.5 20.5zM280 110q25 0 46.5 11t38 30.5t26 46t9.5 56.5
q0 28 -9.5 53t-26 43.5t-38 29t-46.5 10.5t-47 -10.5t-38.5 -29t-26 -43.5t-9.5 -53q0 -30 9.5 -56.5t26 -46t38.5 -30.5t47 -11zM149 552l-55 32l15 30q19 35 43.5 46.5t50.5 8.5t50.5 -15t44.5 -23q24 -13 40 -20t26.5 -8.5t17 2t12.5 11.5l17 29l54 -38l-18 -27
q-16 -26 -34.5 -35.5t-38.5 -9.5q-29 0 -56 12.5t-50 25.5q-26 14 -43 21t-28 8t-18 -4.5t-13 -16.5z" />
    <glyph glyph-name="odieresis" unicode="&#xf6;" horiz-adv-x="560" 
d="M280 508q53 0 100.5 -20.5t83 -55.5t56 -82t20.5 -100t-20.5 -100t-56 -82t-83 -55.5t-100.5 -20.5q-54 0 -101 20.5t-82.5 55.5t-56 82t-20.5 100t20.5 100t56 82t82.5 55.5t101 20.5zM280 111q25 0 47 11t38.5 30.5t26 46t9.5 56.5q0 28 -9.5 53t-26 43.5t-38.5 29
t-47 10.5t-47.5 -10.5t-39 -29t-26 -43.5t-9.5 -53q0 -30 9.5 -56.5t26 -46t39 -30.5t47.5 -11zM185 560q-26 1 -43 19t-17 44q0 24 17.5 42t43.5 17q26 0 43 -17.5t17 -42.5q0 -26 -17.5 -44t-43.5 -18zM374 560q-26 1 -43.5 19t-17.5 44q1 24 18.5 42t43.5 17
q25 0 42.5 -17.5t16.5 -42.5q0 -26 -17 -44t-43 -18z" />
    <glyph glyph-name="ugrave" unicode="&#xf9;" horiz-adv-x="569" 
d="M539 501v-505h-137v505h137zM328 125l49 -88h-1q-52 -46 -131 -46q-121 0 -173 65q-23 32 -35 78.5t-12 113.5v253h137v-253q0 -28 1.5 -53.5t11 -45t29.5 -31t58 -11.5q18 0 34 5t31 13h1zM265 564l-75 116h136l48 -116h-109z" />
    <glyph glyph-name="uacute" unicode="&#xfa;" horiz-adv-x="567" 
d="M537 500v-503h-137v503h137zM374 38h-1q-49 -46 -129 -46q-120 0 -173 65q-23 32 -34.5 78.5t-11.5 112.5v252h137v-252q0 -28 1.5 -53t11 -44.5t29.5 -31t57 -11.5q17 0 33 5t32 13zM299 562h-109l47 116h135z" />
    <glyph glyph-name="ucircumflex" unicode="&#xfb;" horiz-adv-x="569" 
d="M539 502v-505h-137v505h137zM327 126l49 -88l-1 -1q-51 -45 -131 -45q-121 0 -172 65q-47 60 -47 190v255h136v-255q0 -27 1.5 -52.5t11 -44.5t29.5 -30.5t58 -11.5q17 0 33.5 4.5t31.5 12.5zM245 564h-86l85 136h1h72h2l86 -136h-87l-35 68z" />
    <glyph glyph-name="udieresis" unicode="&#xfc;" horiz-adv-x="567" 
d="M537 500v-503h-137v503h137zM326 127l49 -89h-1q-50 -46 -129 -46q-121 0 -173 65q-47 60 -47 191v252h137v-252q0 -28 1.5 -53t11 -44.5t29.5 -31t57 -11.5q17 0 33 5t31 13zM186 566q-26 1 -43.5 19t-17.5 44q0 25 18 43t43 17q26 0 44 -17.5t18 -43.5t-18.5 -44
t-43.5 -18zM437 628q-1 -26 -18.5 -44t-43.5 -18q-26 1 -43.5 19t-17.5 44q0 25 18 43t44 17q26 0 43.5 -17.5t17.5 -43.5z" />
    <glyph glyph-name="yacute" unicode="&#xfd;" horiz-adv-x="582" 
d="M194 38l-184 461h145v-1l133 -382l-93 -79zM572 499v-2q-17 -46 -33 -90t-30 -82q-51 -143 -91.5 -243.5t-85.5 -165.5q-46 -66 -103 -94.5t-142 -28.5h-2v136h2q27 0 47.5 2.5t38 9t31.5 18.5t27 31q13 18 26 44t27.5 62.5t31.5 84t38 108.5q16 46 34 97.5t40 111.5v1
h144zM348 557h-112l49 116h135z" />
    <glyph glyph-name="ydieresis" unicode="&#xff;" horiz-adv-x="583" 
d="M196 38l-186 458h144v-1l135 -380l-92 -79zM573 496l-1 -2q-18 -46 -33.5 -89.5t-29.5 -82.5q-51 -141 -91.5 -242t-85.5 -165q-45 -65 -102.5 -94t-143.5 -29h-1v137h1q53 0 86.5 10.5t59.5 48.5q13 18 26 44.5t27.5 62.5t31.5 83.5t38 108.5q16 46 33.5 97t39.5 111v1
h145zM194 560q-26 0 -43.5 18t-17.5 44q0 25 18 43t44 17q26 0 43.5 -18t16.5 -43q0 -26 -17.5 -43.5t-43.5 -17.5zM383 560q-26 0 -43.5 18t-17.5 44q0 25 18 43t44 17q26 0 43.5 -18t16.5 -43q0 -26 -17.5 -43.5t-43.5 -17.5z" />
    <glyph glyph-name="oe" unicode="&#x153;" horiz-adv-x="958" 
d="M673 507q54 0 101.5 -20t82.5 -55t55.5 -82t20.5 -100q0 -14 -2 -28.5t-4 -28.5l-1 -1h-255l-63 101h188q-12 42 -45 69t-78 27q-27 0 -50.5 -11t-40.5 -29.5t-27 -44t-10 -54.5q0 -23 9 -47.5t25.5 -44.5t40.5 -33.5t53 -13.5q28 0 50.5 7.5t43.5 33.5h1l116 -52l-1 -2
q-37 -50 -92 -78t-118 -28q-58 0 -108 23.5t-85 64.5q-37 -41 -87 -64.5t-109 -23.5q-54 0 -101 20.5t-82 55.5t-55.5 82t-20.5 100t20.5 100t55.5 82t82 55.5t101 20.5q59 0 109 -23.5t87 -64.5q35 41 85 64t108 23zM284 111q25 0 47 11t38.5 30.5t26 45.5t9.5 56
q0 28 -9.5 53t-26 43.5t-38.5 29.5t-47 11t-47 -11t-38.5 -29.5t-26 -43.5t-9.5 -53q0 -30 9.5 -56t26 -45.5t38.5 -30.5t47 -11z" />
    <glyph glyph-name="Scaron" unicode="&#x160;" horiz-adv-x="607" 
d="M356 409q48 -12 88.5 -28t70 -39t46 -55t16.5 -77v-2q0 -48 -19.5 -88t-53.5 -68.5t-80.5 -44t-101.5 -15.5q-51 0 -97.5 12.5t-85 32.5t-66.5 46.5t-43 54.5l117 74q19 -20 37.5 -36.5t39.5 -28.5t46 -18.5t55 -6.5q19 0 39 4t36 13t26 22.5t10 33.5q0 14 -7 27
t-24.5 25.5t-46.5 24t-73 22.5q-54 13 -97 29.5t-73 40t-45.5 55.5t-15.5 77v2q0 49 18.5 88t51 66t77 41.5t96.5 14.5q53 0 96 -12t76.5 -30.5t58.5 -41.5t42 -45l-114 -75q-42 40 -80.5 57t-80.5 17q-26 0 -44.5 -6t-30.5 -16t-18 -21.5t-6 -22.5q-1 -20 9.5 -35t31 -26.5
t50.5 -21.5t69 -20zM266 771l-84 136h86l36 -68l35 68h85l-83 -136h-2h-71h-2z" />
    <glyph glyph-name="scaron" unicode="&#x161;" horiz-adv-x="459" 
d="M282 296q32 -11 60 -22t48.5 -27t32 -38t11.5 -54v-2q0 -76 -50.5 -118.5t-141.5 -42.5q-58 0 -113 19.5t-103 55.5l-1 1h1l68 108l1 -1q61 -66 151 -66q58 0 58 38q0 19 -19 28t-45 16q-5 2 -10 3.5t-10 3.5q-30 8 -60 17.5t-54.5 26t-39.5 41.5t-15 64v3q0 35 13 64
t37 50t58 32.5t76 11.5q48 0 96.5 -15t90.5 -42l1 -1l-1 -1l-60 -111l-2 1q-23 23 -56.5 36.5t-71.5 13.5q-8 0 -17 -1.5t-16.5 -5t-13 -10.5t-5.5 -18q0 -9 8 -17t20.5 -14.5t28.5 -12t32 -10.5q8 -2 13 -4zM191 555l-83 136h86l37 -68l34 68h85l-83 -136h-2h-71h-3z" />
    <glyph glyph-name="Ydieresis" unicode="&#x178;" horiz-adv-x="578" 
d="M195 45l-185 455h143v-2l135 -376l-92 -79zM568 500l-1 -3q-17 -45 -32.5 -88t-29.5 -82q-50 -140 -90.5 -240.5t-84.5 -164.5q-23 -32 -47.5 -55t-54 -37.5t-64.5 -21.5t-78 -7h-1v135h1q26 0 47 2t38.5 8.5t31.5 18.5t27 31q13 18 26 44t27 62t31 83.5t38 107.5
q15 45 32.5 95.5t40.5 109.5v2h143zM193 564q-26 0 -44 17.5t-18 42.5q0 26 18.5 43.5t44.5 16.5q25 0 42.5 -17.5t16.5 -43.5q0 -25 -17.5 -42t-42.5 -17zM379 564q-24 0 -41.5 17.5t-17.5 42.5q0 26 18 43.5t42 16.5q26 0 44.5 -17.5t17.5 -43.5q0 -25 -18.5 -42
t-44.5 -17z" />
    <glyph glyph-name="Zcaron" unicode="&#x17d;" horiz-adv-x="630" 
d="M194 122h43h378v-122h-605v122h184zM36 700h584v-137l-413 -427l-138 63l368 378h-401v123zM291 771h-1l-83 135h84l38 -69l34 69h86l-84 -135h-2h-72z" />
    <glyph glyph-name="zcaron" unicode="&#x17e;" horiz-adv-x="536" 
d="M10 118h500v-118h-500v118zM526 502v-132v1l-293 -244l-1 1l-156 51l2 2l254 211h-306v110h500zM232 557h-1l-84 137h85l37 -69l35 69h86l-84 -137h-3h-71z" />
    <glyph glyph-name="ring" unicode="&#x2da;" horiz-adv-x="324" 
d="M161 570q-27 0 -50.5 10.5t-41.5 28.5t-28.5 42.5t-10.5 51.5t10.5 50.5t28.5 41.5t41.5 28.5t50.5 10.5t51.5 -10.5t42.5 -28.5t28.5 -41.5t10.5 -50.5t-10.5 -51.5t-28.5 -42.5t-42.5 -28.5t-51.5 -10.5zM161 757q-22 0 -38 -16t-16 -38q0 -23 16 -39.5t38 -16.5
q23 0 39.5 16.5t16.5 39.5q0 22 -16.5 38t-39.5 16z" />
    <glyph glyph-name="quoteleft" unicode="&#x2018;" horiz-adv-x="255" 
d="M180 700l45 -257h-94l-101 257h150z" />
    <glyph glyph-name="quoteright" unicode="&#x2019;" horiz-adv-x="255" 
d="M225 700l-101 -257h-94l45 257h150z" />
    <glyph glyph-name="quotesinglbase" unicode="&#x201a;" horiz-adv-x="233" 
d="M203 116l-89 -228h-84l40 228h133z" />
    <glyph glyph-name="quotedblleft" unicode="&#x201c;" horiz-adv-x="423" 
d="M349 700l44 -255h-93l-99 255h148zM180 700l44 -255h-94l-100 255h150z" />
    <glyph glyph-name="quotedblright" unicode="&#x201d;" horiz-adv-x="423" 
d="M222 700l-99 -255h-93l44 255h148zM393 700l-100 -255h-94l44 255h150z" />
    <glyph glyph-name="quotedblbase" unicode="&#x201e;" horiz-adv-x="423" 
d="M222 118l-99 -255h-93l44 255h148zM393 118l-100 -255h-94l44 255h150z" />
    <glyph glyph-name="dagger" unicode="&#x2020;" horiz-adv-x="481" 
d="M451 587v-125h-137v-470h-143v470h-141v125h141v121h143v-121h137v0z" />
    <glyph glyph-name="daggerdbl" unicode="&#x2021;" horiz-adv-x="482" 
d="M452 462h-138v-222h138v-124h-138v-126h-144v126h-140v124h140v222h-140v124h140v121h144v-121h138v-124v0z" />
    <glyph glyph-name="bullet" unicode="&#x2022;" horiz-adv-x="214" 
d="M183 355q-1 -32 -23 -54.5t-54 -21.5q-32 0 -54 22.5t-21 53.5q0 32 22 54.5t54 22.5q32 -1 54.5 -23t21.5 -54z" />
    <glyph glyph-name="ellipsis" unicode="&#x2026;" horiz-adv-x="697" 
d="M110 149q33 0 56 -23t22 -56q0 -33 -23.5 -56t-56.5 -23q-32 1 -55 24t-22 57q0 32 23 55t56 22zM349 149q33 0 56 -23t22 -56q0 -33 -23.5 -56t-56.5 -23q-32 1 -55 24t-22 57q0 32 23 55t56 22zM588 149q33 0 56 -23t22 -56q0 -33 -23.5 -56t-56.5 -23q-32 1 -55 24
t-22 57q0 32 23 55t56 22z" />
    <glyph glyph-name="perthousand" unicode="&#x2030;" horiz-adv-x="979" 
d="M566 573l-434 -486l-44 41l433 485zM318 564q0 -30 -11.5 -56t-31 -45.5t-45.5 -31t-56 -11.5t-56.5 11.5t-46 31t-30.5 45.5t-11 56t11 56t30.5 45.5t46 31t56.5 11.5t56 -11.5t45.5 -31t31 -45.5t11.5 -56zM121 564q0 -23 15 -39t38 -16t39 16t16 39t-16 38t-39 15
t-38 -15t-15 -38zM480 280q30 0 56 -11.5t45.5 -31t31 -45.5t11.5 -56t-11.5 -56t-31 -45.5t-45.5 -31t-56 -11.5t-56.5 11.5t-46 31t-30.5 45.5t-11 56t11 56t30.5 45.5t46 31t56.5 11.5zM480 83q22 0 37.5 15t15.5 38t-15.5 39t-37.5 16q-23 0 -39 -16t-16 -39t16 -38
t39 -15zM806 280q29 0 55 -11.5t45.5 -31t31 -45.5t11.5 -56t-11.5 -56t-31 -45.5t-45.5 -31t-55 -11.5q-30 0 -56.5 11.5t-46 31t-31 45.5t-11.5 56t11.5 56t31 45.5t46 31t56.5 11.5zM806 83q21 0 37 15t16 38t-16 39t-37 16q-23 0 -39 -16t-16 -39t16 -38t39 -15z" />
    <glyph glyph-name="guilsinglleft" unicode="&#x2039;" horiz-adv-x="303" 
d="M273 508l-112 -179l112 -178h-131l-112 178l112 179h131v0z" />
    <glyph glyph-name="guilsinglright" unicode="&#x203a;" horiz-adv-x="303" 
d="M30 508h131l112 -179l-112 -178h-131l112 178z" />
    <glyph glyph-name="Euro" unicode="&#x20ac;" horiz-adv-x="736" 
d="M706 161q-24 -38 -52 -69.5t-61.5 -54t-73.5 -34.5t-88 -12q-60 0 -110.5 18.5t-91 52t-69 79t-43.5 99.5h-87v80h74q-1 7 -1 14.5v15.5v14.5t1 15.5h-74v80h87q15 54 43.5 99.5t69 78.5t91 51.5t110.5 18.5q48 0 88 -12t73.5 -34.5t61.5 -54t52 -69.5l-117 -75
q-14 27 -29 49.5t-34 38t-42 24.5t-53 9q-62 0 -104 -34.5t-62 -89.5h202v-80h-220q0 -7 -0.5 -15t-0.5 -15q0 -8 0.5 -15.5t0.5 -14.5h220v-80h-202q20 -56 62 -89.5t104 -33.5q30 0 53 8.5t42 24t34 37.5t29 49z" />
    <glyph glyph-name="_0127" horiz-adv-x="0" 
 />
    <glyph glyph-name="_0129" horiz-adv-x="0" 
 />
    </font>
</defs>
</svg>
