<svg xmlns="http://www.w3.org/2000/svg" viewBox="0 0 480.6 278.55"><defs><style>.cls-1{fill:#7d8cea;}.cls-2{fill:#f3bf5f;}.cls-3{fill:#f3d944;}.cls-4{fill:#f3d945;}.cls-5{fill:#f3d25f;}.cls-6{fill:#f3ae5e;}.cls-7{fill:#f3f259;}.cls-8{fill:#3955b0;}.cls-9{fill:#fbfbfb;}.cls-10{fill:#281612;}</style></defs><g id="Calque_2" data-name="Calque 2"><g id="Calque_1-2" data-name="Calque 1"><path class="cls-1" d="M72.07,97.82,86.29,57.43c.52,1,1.13,2,1.56,3Q98,84.78,108.05,109.09c-2.64,3.62-5.46,7.12-7.89,10.87-15.47,24-15.9,51.12-.83,72.42C111,208.9,127.48,218.14,147,222.3c-17.95,7.32-35.88,14.68-53.86,21.93q-41.29,16.64-82.64,33.14C15,264.23,19.31,251.06,23.82,238q15.1-43.9,30.29-87.77a29.87,29.87,0,0,0,.81-3.78c4.14-9,6.84-18.4,9.64-27.81C67.91,112,69.68,104.78,72.07,97.82Z"/><path class="cls-1" d="M426,143.23c2.36,10.16,6.43,19.76,9.77,29.59,11.32,33.26,22.91,66.43,34.38,99.64.5,1.47,1.39,2.92.88,4.61-.82-.28-1.65-.51-2.45-.83l-130.7-52.57c7.16-2.26,14.26-4.63,20.84-8.39,29.24-16.71,45.42-51.25,29.6-86.08-3.52-7.75-8.83-14.23-13.94-20.88l21.24-51.27q5.94,16.94,11.9,33.87c.52,1.49,1.21,2.91,1.82,4.35a147.27,147.27,0,0,0,7,20.53C419.12,125.08,422.21,134.27,426,143.23Z"/><path class="cls-2" d="M337.84,223.67l130.7,52.57c.8.32,1.63.55,2.45.83-.33.85-.82,1.54-1.86,1.47-25.16-1.62-50.35-.42-75.52-.65-19.43-.17-38.85,0-58.28.05q-49.11.21-98.23.53a30.66,30.66,0,0,1-3.43-.35l5.8-.36c4-2.34,8-4.54,11.89-7.05,19.43-12.67,38.85-25.35,58.16-38.21,3.25-2.16,7.43-3.36,9.17-7.44C325.08,224.73,331.51,224.94,337.84,223.67Z"/><path class="cls-3" d="M239.47,277.76l-5.8.36c-11.44.67-22.9.26-34.34.22-7.4,0-14.79-.39-22.18-.39Q94.08,278,11,278c-.16,0-.31-.43-.47-.65q41.33-16.58,82.64-33.14c18-7.25,35.91-14.61,53.86-21.93l14,1.54c.92,3,3.88,3.71,6.05,5.15q29.19,19.33,58.53,38.41c4.57,3,8.75,6.58,13.84,8.71C239.48,276.66,239.48,277.21,239.47,277.76Z"/><path class="cls-4" d="M395.58,57.05l-21.24,51.27c-2.09-1.78-4.14-3.61-6.28-5.33-18.18-14.64-38.39-21-61.6-15-14.92,3.88-27,12.38-37.4,23.41-4.48-8.36-9-16.71-13.44-25.1-4.57-8.64-9.05-17.33-13.58-26l-.9-2.17c1.77-.19,3.62.55,5.31-.46h.8c1.15,1.27,2.68.69,4.06.85,5.06.59,10-1.05,15-.81,21.7-.05,43.41.28,65.09-.27,20.82-.53,41.64-.33,62.46-.62A11.14,11.14,0,0,1,395.58,57.05Z"/><path class="cls-5" d="M241.14,58.14l.9,2.17-1.63.84C233.73,71.1,228.84,82,222.93,92.43c-3,5.24-5.9,10.52-8.85,15.79-3-2.68-5.89-5.56-9.09-8-22.74-17.37-47.1-21.28-73.43-8.67-9,4.32-16.37,10.77-23.51,17.55Q98,84.78,87.85,60.46c-.43-1-1-2-1.56-3a5,5,0,0,1,1.57-.58c19.72,0,39.46-.27,59.17.3,20.43.59,40.86.42,61.29.47Z"/><path class="cls-3" d="M241.14,58.14l-32.82-.52q17-19.11,34-38.2l.22.07q1.94,19.09,3.88,38.19C244.76,58.69,242.91,58,241.14,58.14Z"/><path class="cls-6" d="M64.56,118.59c-2.8,9.41-5.5,18.85-9.64,27.81q-11.34-19.76-22.66-39.5c-.53-.93-1.59-1.8-1-3.13C42.8,107.75,53.59,113.37,64.56,118.59Z"/><path class="cls-6" d="M426,143.23c-3.75-9-6.84-18.15-9.68-27.43l33-15.33a1.83,1.83,0,0,1,.84.08.39.39,0,0,0,.11.42Z"/><path class="cls-4" d="M64.56,118.59c-11-5.22-21.76-10.84-33.28-14.82l0,.07q0-.39-.06-.78l40.8-5.24C69.68,104.78,67.91,112,64.56,118.59Z"/><path class="cls-7" d="M449.31,100.47l-33,15.33a147.27,147.27,0,0,1-7-20.53Z"/><path class="cls-7" d="M246.45,57.68q-1.94-19.09-3.88-38.19c5.66-1.68,11.5-.11,17.21-.88.91.18,1.42.65,1.26,1.65a12.91,12.91,0,0,0-1.29,2.2q-6.28,17.59-12.5,35.21Z"/><path class="cls-6" d="M247.25,57.67q6.24-17.61,12.5-35.21a12.91,12.91,0,0,1,1.29-2.2q2.64,18.72,5.29,37.45c-5-.24-10,1.4-15,.81C249.93,58.36,248.4,58.94,247.25,57.67Z"/><path class="cls-6" d="M0,89c7.37-3.66,15.53-4.75,23.25-7.3,1.76-.57,1.93.63,2.2,1.76,1.49,6.28,3.58,12.42,4.38,18.86Z"/><path class="cls-1" d="M450.92,99.48c.83-6.14,2.84-12,4.21-18,.39-1.74,1.21-2.59,3-2,7.46,2.42,15.28,3.72,22.49,7C470.69,90.73,461.17,95.92,450.92,99.48Z"/><path class="cls-1" d="M0,89l29.83,13.32.57.75a.55.55,0,0,1,0,.5c-5.44,1.87-10.92,3.63-16.3,5.66-2.56,1-4.2,1-5.43-1.93C6,101.11,2.16,95.46,0,89Z"/><path class="cls-6" d="M450.92,99.48c10.25-3.56,19.77-8.75,29.68-13.07-2.2,7.07-6.29,13.25-9.43,19.87-1,2.09-2.7,1-4.15.55-5.59-1.92-11.17-3.9-16.76-5.85a.41.41,0,0,1-.11-.43C450.41,100.19,450.67,99.84,450.92,99.48Z"/><path class="cls-1" d="M259.78,18.61c-5.71.77-11.55-.8-17.21.88l-.22-.07L229,.24l-.05,0c.42,0,.94-.16,1.26,0C240.16,6.28,250.26,12,259.78,18.61Z"/><path class="cls-1" d="M229,.24,228.7,0l.28.28Z"/><path class="cls-8" d="M30.36,103.59a.55.55,0,0,0,0-.5l.87,0q0,.39.06.78Z"/><path class="cls-9" d="M108.05,109.09c7.14-6.78,14.5-13.23,23.51-17.55,26.33-12.61,50.69-8.7,73.43,8.67,3.2,2.45,6.07,5.33,9.09,8,.85,1.17,1.66,2.36,2.56,3.49,11.64,14.62,17.77,31,15.9,49.89-1.67,16.79-9.33,30.59-21.49,41.92-14,13.06-30.92,19.46-50,20.32l-14-1.54c-19.55-4.16-36-13.4-47.7-29.92-15.07-21.3-14.64-48.46.83-72.42C102.59,116.21,105.41,112.71,108.05,109.09Zm52.14,104.63a58.27,58.27,0,0,0,18.92-3c28.3-9.08,45.36-35.39,41.15-63.46-4.15-27.66-31.2-50.67-59.6-50.56-18.84.07-33.9,8.46-45.63,22.5-14.6,17.48-21,37.48-11.2,59.24C114.57,202.23,135,212.21,160.19,213.72Z"/><path class="cls-9" d="M269.06,111.41c10.44-11,22.48-19.53,37.4-23.41,23.21-6,43.42.35,61.6,15,2.14,1.72,4.19,3.55,6.28,5.33,5.11,6.65,10.42,13.13,13.94,20.88,15.82,34.83-.36,69.37-29.6,86.08-6.58,3.76-13.68,6.13-20.84,8.39-6.33,1.27-12.76,1.06-19.15,1.39A82.44,82.44,0,0,1,286,215.85c-27.63-14.4-41.13-42.53-34.16-71.74C254.73,131.75,261.08,121.14,269.06,111.41Zm53.1,102.16a55,55,0,0,0,15.28-1.9c38.57-9.63,56.13-47,37.6-80.92-17.5-32-56.9-46.75-89.58-21.47-17.93,13.87-27.36,32.41-23.63,55.46C266.39,192.94,292.24,213.56,322.16,213.57Z"/><path class="cls-6" d="M269.06,111.41c-8,9.73-14.33,20.34-17.27,32.7-7,29.21,6.53,57.34,34.16,71.74a82.44,82.44,0,0,0,32.74,9.21c-1.74,4.08-5.92,5.28-9.17,7.44-19.31,12.86-38.73,25.54-58.16,38.21-3.86,2.51-7.92,4.71-11.89,7.05,0-.55,0-1.1,0-1.65-.53-25,.83-50,.83-75.07q0-69.94.1-139.89l1.63-.84c4.53,8.67,9,17.36,13.58,26C260.06,94.7,264.58,103.05,269.06,111.41Z"/><path class="cls-7" d="M240.41,61.15q-.06,69.94-.1,139.89c0,25-1.36,50-.83,75.07-5.09-2.13-9.27-5.74-13.84-8.71Q196.32,248.31,167.11,229c-2.17-1.44-5.13-2.16-6.05-5.15,19.07-.86,36-7.26,50-20.32,12.16-11.33,19.82-25.13,21.49-41.92,1.87-18.92-4.26-35.27-15.9-49.89-.9-1.13-1.71-2.32-2.56-3.49C217,103,220,97.67,222.93,92.43,228.84,82,233.73,71.1,240.41,61.15Z"/><path class="cls-10" d="M160.19,213.72c-25.17-1.51-45.62-11.49-56.36-35.27-9.83-21.76-3.4-41.76,11.2-59.24,11.73-14,26.79-22.43,45.63-22.5,28.4-.11,55.45,22.9,59.6,50.56,4.21,28.07-12.85,54.38-41.15,63.46A58.27,58.27,0,0,1,160.19,213.72Zm20.08-52.35c11.88.07,21.67-9,21.74-20.22.07-11.36-9.9-21.49-21.23-21.56s-22,10.59-22.18,22C158.46,152.26,168.34,161.29,180.27,161.37Z"/><path class="cls-10" d="M322.16,213.57c-29.92,0-55.77-20.63-60.33-48.83-3.73-23.05,5.7-41.59,23.63-55.46C318.14,84,357.54,98.76,375,130.75c18.53,33.88,1,71.29-37.6,80.92A55,55,0,0,1,322.16,213.57Zm21.69-93.25c-11.45,0-21.49,9.88-21.52,21.22,0,11,10,20.53,21.6,20.55,11.82,0,21.8-9,21.8-19.7C365.74,130.84,355.34,120.34,343.85,120.32Z"/><path class="cls-9" d="M180.27,161.37c-11.93-.08-21.81-9.11-21.67-19.79.15-11.4,10.9-22.06,22.18-22s21.3,10.2,21.23,21.56C201.94,152.34,192.15,161.44,180.27,161.37Z"/><path class="cls-9" d="M343.85,120.32c11.49,0,21.89,10.52,21.88,22.07,0,10.71-10,19.72-21.8,19.7-11.64,0-21.64-9.52-21.6-20.55C322.36,130.2,332.4,120.3,343.85,120.32Z"/></g></g></svg>