<svg xmlns="http://www.w3.org/2000/svg" viewBox="0 0 843.77 481.26"><defs><style>.cls-1{fill:#fff;}.cls-2{fill:#7d8cea;}.cls-3{fill:#f3bf5f;}.cls-4{fill:#f3d944;}.cls-5{fill:#f3d945;}.cls-6{fill:#f3d25f;}.cls-7{fill:#3955b0;}.cls-8{fill:#f3f259;}.cls-9{fill:#f3ae5e;}.cls-10{fill:#fbfbfb;}.cls-11{fill:#281612;}</style></defs><g id="Calque_2" data-name="Calque 2"><g id="Calque_1-2" data-name="Calque 1"><path class="cls-1" d="M350.74,30.23c-.3-2.44-.53-4.89-.93-7.31-.89-5.45-.91-5.39,4.77-6.17,7-1,14.1-1.82,21.07-3.13,2.8-.53,3.36.27,3.72,2.77,3,21.07,6.11,42.12,9.19,63.18,1.54,10.6,3.1,21.2,4.6,31.81,3.72,26.42-11.17,53.16-35.69,64.15-24.81,11.13-54.9,4.61-72.25-15.49-2-2.3-2.26-3.34.66-5,6-3.43,11.88-7.21,17.72-11,1.83-1.18,2.9-1.32,4.66.45,9.78,9.79,25.7,12.7,37.33,7.11,11.78-5.67,19.45-19.27,17.83-33.06-1.81-15.53-3.86-31-6.54-46.44-3.13-17.9-22.38-29.06-40.23-24-17.28,4.95-26.87,24.37-20.39,41.33s26.43,25.07,42.73,17.24c2.58-1.24,3.86-1.22,5.56,1.19,3.17,4.5,6.58,8.84,10.16,13,1.89,2.22,1.5,3.42-.56,5.23-10.76,9.48-23.59,12.08-37.29,10.88-29.56-2.6-52.05-25.85-53.6-54.94-1.57-29.29,18.43-54.9,47.61-60.73,14.45-2.89,27.64-.22,39,9.66l.86.61Z"/><path class="cls-2" d="M229,300.53q7.11-20.19,14.23-40.39c.52,1,1.13,2,1.56,3Q254.9,287.49,265,311.8c-2.64,3.62-5.46,7.12-7.89,10.87-15.47,24-15.9,51.12-.83,72.42C267.93,411.61,284.4,420.85,304,425c-17.95,7.32-35.88,14.68-53.86,21.93q-41.29,16.63-82.64,33.14c4.42-13.14,8.78-26.31,13.29-39.42q15.09-43.91,30.29-87.77a29.87,29.87,0,0,0,.81-3.78c4.13-9,6.84-18.4,9.64-27.81C224.82,314.68,226.6,307.49,229,300.53Z"/><path class="cls-2" d="M582.88,345.94c2.35,10.16,6.42,19.76,9.77,29.59C604,408.79,615.56,442,627,475.17c.51,1.47,1.39,2.92.89,4.61-.82-.28-1.66-.51-2.46-.83L494.76,426.38c7.16-2.26,14.26-4.63,20.84-8.4,29.24-16.7,45.42-51.24,29.6-86.07-3.52-7.75-8.84-14.23-14-20.88q10.63-25.63,21.25-51.27,5.94,16.94,11.9,33.87c.52,1.49,1.21,2.91,1.82,4.35a147.27,147.27,0,0,0,7,20.53A289.73,289.73,0,0,0,582.88,345.94Z"/><path class="cls-1" d="M558.28,52.53c1-4.09,1.93-7.57,2.67-11.1.43-2,.92-2.9,3.41-2.24,7.83,2.07,15.77,3.76,23.65,5.63,1.57.37,2.75.58,2.15,3.06q-12.69,52.28-25,104.63c-.55,2.32-1.42,2.91-3.86,2.25-7.54-2-15.13-3.95-22.78-5.51-2.91-.59-3-1.69-2.4-4.1q6.31-25.69,12.41-51.44A30.68,30.68,0,0,0,536.4,61.14c-11.35-8-23.19-8.17-35.09-1.28-10.6,6.13-16.14,18.2-14.42,30.74,2.21,16,17.39,28.06,33.74,26.66,1.77-.15,2.51,0,3,1.89,1.55,6,3.25,12,5.15,17.93.79,2.48-.21,3.31-2.25,4-13.62,4.53-26.67,2.39-39.11-3.86-28.06-14.08-39.5-48.08-26.13-76.89,12.88-27.73,46.57-40.69,75-28.85C545.45,35.27,550.75,40.29,558.28,52.53Z"/><path class="cls-1" d="M699.59,118.84c6.91-2.74,13.72-4.94,20.92-4.33C745.86,116.63,760.3,137,754,161.68a68.72,68.72,0,0,1-7.46,18c-10.9,18.42-21.86,36.81-32.64,55.3-1.47,2.52-2.52,2.55-4.79,1.14-6.63-4.12-13.33-8.16-20.17-11.92-2.59-1.42-2.72-2.43-1.25-4.87q16.49-27.3,32.66-54.79c6.37-10.84.62-23.75-11.53-26.44-7-1.56-14.67,2.12-18.95,9.31-10.5,17.65-21.06,35.27-31.29,53.08-2.15,3.74-3.69,3.92-7.09,1.67-5.9-3.9-12.08-7.41-18.29-10.82-2.71-1.49-3.28-2.63-1.55-5.5,10.6-17.59,21-35.31,31.45-53,5.72-9.65,4.45-17.55-4.24-24.91a4.13,4.13,0,0,1-1.64-3.7c.24-6.22.62-12.45.47-18.67-.08-3.29,1-4.21,4.13-4.33C680,80.52,696.25,94,698.7,111.83,699,114,699.25,116.12,699.59,118.84Z"/><path class="cls-1" d="M60.17,135.52c33.89,1.94,58.63,29,56.49,61.69-2.11,32.33-29.7,56.93-61.57,54.91C21.65,250-1.8,223.15.11,189.2,1.82,158.8,29.82,133.78,60.17,135.52Zm26.59,62.63a35.42,35.42,0,0,0-21.47-32c-19.38-8-38.3,5.57-36.24,26A35.69,35.69,0,0,0,54.2,222.32C71.51,227.49,86.77,216.17,86.76,198.15Z"/><path class="cls-3" d="M494.75,426.38,625.45,479c.8.32,1.64.55,2.46.83-.33.85-.82,1.54-1.86,1.47-25.17-1.62-50.35-.42-75.53-.65-19.42-.17-38.85,0-58.27,0q-49.11.21-98.23.53a30.66,30.66,0,0,1-3.43-.35l5.8-.36c4-2.34,8-4.54,11.88-7.05,19.44-12.67,38.86-25.35,58.17-38.21,3.25-2.16,7.43-3.36,9.17-7.44C482,427.44,488.43,427.65,494.75,426.38Z"/><path class="cls-4" d="M396.39,480.47l-5.8.36c-11.44.67-22.9.26-34.35.22-7.39,0-14.78-.39-22.17-.39q-83.07,0-166.15.07c-.16,0-.32-.43-.47-.65q41.33-16.57,82.64-33.14c18-7.25,35.91-14.61,53.86-21.93l14,1.54c.92,3,3.87,3.71,6,5.15q29.18,19.33,58.53,38.41c4.56,3,8.74,6.58,13.84,8.71C396.4,479.37,396.39,479.92,396.39,480.47Z"/><path class="cls-1" d="M131.7,96.34c8.07-22.21,25-34.13,48.53-34.82,2.61-.08,2.72,1,2.55,3.1-.61,7.36-1.19,14.72-1.42,22.09-.09,2.78-.72,3.53-3.6,3.66-20.06,1-33.89,17.69-30.41,36.72,1.11,6,4.77,11.12,7.35,16.59q9.26,19.59,19,39c1.3,2.6.9,3.52-1.64,4.68q-11.06,5-21.84,10.62c-2.45,1.26-3.38.72-4.51-1.61q-23-47.4-46.16-94.69c-1.61-3.28-1.07-4.54,2.17-6,6.74-3,13.45-6.09,19.86-9.7,3.65-2.06,5-.92,6.24,2.37C128.81,91,130.26,93.44,131.7,96.34Z"/><path class="cls-5" d="M552.5,259.76Q541.88,285.4,531.25,311c-2.08-1.78-4.13-3.61-6.27-5.33-18.18-14.64-38.39-21-61.6-15-14.93,3.88-27,12.38-37.41,23.41-4.48-8.36-9-16.71-13.43-25.1-4.57-8.64-9.06-17.33-13.58-26l-.9-2.17c1.77-.19,3.62.55,5.31-.46h.8c1.15,1.27,2.68.69,4.06.85,5,.59,10-1.05,15-.81,21.7-.05,43.41.28,65.09-.27,20.82-.53,41.64-.33,62.45-.62A11.27,11.27,0,0,1,552.5,259.76Z"/><path class="cls-6" d="M398.06,260.85,399,263l-1.63.84c-6.69,9.95-11.57,20.89-17.48,31.28-3,5.24-5.9,10.52-8.85,15.79-3-2.68-5.89-5.56-9.09-8-22.74-17.37-47.1-21.28-73.43-8.67-9,4.32-16.37,10.77-23.51,17.55q-10.1-24.32-20.2-48.63c-.43-1-1-2-1.56-3a5,5,0,0,1,1.57-.58c19.72,0,39.46-.27,59.16.3,20.44.59,40.86.42,61.29.47Z"/><path class="cls-1" d="M599.12,171c-.68-.38-1.32-.72-1.94-1.09-7-4.1-13.92-8.27-21-12.26-2.1-1.19-2.4-2.18-1.12-4.32q27.25-45.82,54.32-91.78c1.33-2.26,2.25-2.69,4.57-1.25,6.87,4.28,13.86,8.37,20.9,12.36,2,1.15,2.19,2,1,4q-27.35,46-54.59,92.12C600.8,169.67,600.61,171,599.12,171Z"/><path class="cls-1" d="M228.13,42.83c1.72.37,1.51,2.12,1.92,3.34q11.3,34.14,22.52,68.32c3.56,10.84,7,21.71,10.7,32.49.84,2.43.35,3.16-2,3.88-7.6,2.32-15.14,4.85-22.65,7.44-2.25.78-3.4.79-4.28-1.93Q217.8,105.48,201,54.67c-.43-1.33-1.45-2.56.94-3.31,8.41-2.66,16.77-5.51,25.15-8.28C227.38,43,227.67,42.94,228.13,42.83Z"/><path class="cls-1" d="M740,269.11C733,263,726.23,257,719.3,251c-1.84-1.56-1.53-2.46-.07-4.1q35.57-40.12,71-80.4c1.59-1.81,2.53-2,4.37-.3,6,5.48,12.11,10.77,18.19,16.14,1.22,1.07,2.35,1.82.64,3.74Q776.65,227.49,740,269.11Z"/><path class="cls-1" d="M407.54,113.16c.07-10.41,7.55-17.83,17.84-17.69s18,7.71,17.88,17.8A18.23,18.23,0,0,1,425,131.47C415,131.29,407.47,123.38,407.54,113.16Z"/><path class="cls-1" d="M821.82,130.51c1.23,1,1.93,1.5,2.57,2.07,5.87,5.18,11.61,10.51,17.63,15.5,2.5,2.06,2.1,3.36.18,5.43q-6.8,7.32-13.25,15c-1.41,1.66-2.32,1.92-4,.36q-9-8.19-18.25-16.09c-1.76-1.51-2.22-2.46-.4-4.4,4.84-5.18,9.44-10.6,14.12-15.93C820.92,131.8,821.37,131.11,821.82,130.51Z"/><path class="cls-1" d="M213.39.09c1.43-.39,1.71.55,2.05,1.59,2.31,7.15,4.58,14.3,7,21.39.65,1.88-.15,2.17-1.58,2.63-8.12,2.6-16.24,5.2-24.3,8-1.91.66-2.55.18-3.11-1.55-2.2-6.88-4.52-13.72-6.72-20.59-.31-1-1.16-2.21.67-2.81Q200.43,4.45,213.39.09Z"/><path class="cls-7" d="M398.06,260.85l-32.83-.52,34-38.2.22.07q1.93,19.1,3.88,38.19C401.68,261.4,399.83,260.66,398.06,260.85Z"/><path class="cls-7" d="M221.48,321.3c-2.8,9.41-5.51,18.85-9.64,27.81q-11.34-19.75-22.66-39.5c-.53-.93-1.59-1.8-1-3.13C199.72,310.46,210.51,316.08,221.48,321.3Z"/><path class="cls-7" d="M582.88,345.94a289.73,289.73,0,0,1-9.68-27.43l33-15.33a1.83,1.83,0,0,1,.84.08.39.39,0,0,0,.11.42Z"/><path class="cls-5" d="M221.48,321.3c-11-5.22-21.76-10.84-33.29-14.82l.06.07a6.85,6.85,0,0,0-.07-.78l40.8-5.24C226.6,307.49,224.82,314.68,221.48,321.3Z"/><path class="cls-8" d="M606.23,303.18l-33,15.33a147.27,147.27,0,0,1-7-20.53Z"/><path class="cls-8" d="M403.37,260.39q-1.94-19.09-3.88-38.19c5.66-1.68,11.5-.11,17.21-.88.9.18,1.42.65,1.26,1.65a13.66,13.66,0,0,0-1.3,2.2q-6.27,17.6-12.49,35.21Z"/><path class="cls-9" d="M404.17,260.38q6.24-17.61,12.49-35.21A13.66,13.66,0,0,1,418,223l5.28,37.45c-5-.24-10,1.4-15,.81C406.85,261.07,405.32,261.65,404.17,260.38Z"/><path class="cls-2" d="M156.92,291.73c7.36-3.66,15.53-4.75,23.25-7.3,1.76-.57,1.93.63,2.2,1.75,1.49,6.29,3.58,12.43,4.38,18.87Z"/><path class="cls-2" d="M607.84,302.19c.83-6.14,2.84-12,4.2-18,.4-1.74,1.22-2.59,3-2,7.46,2.42,15.28,3.72,22.49,6.95C627.61,293.44,618.09,298.63,607.84,302.19Z"/><path class="cls-9" d="M156.92,291.73l29.83,13.32.56.75a.55.55,0,0,1,0,.5c-5.44,1.87-10.92,3.63-16.3,5.66-2.56,1-4.2,1-5.43-1.93C162.93,303.82,159.08,298.17,156.92,291.73Z"/><path class="cls-9" d="M607.84,302.19c10.25-3.56,19.77-8.75,29.68-13.07-2.21,7.07-6.29,13.25-9.43,19.87-1,2.09-2.7,1.05-4.15.55-5.6-1.92-11.18-3.9-16.76-5.85a.41.41,0,0,1-.11-.43Z"/><path class="cls-1" d="M416.7,221.32c-5.71.77-11.55-.8-17.21.88l-.22-.07q-6.66-9.6-13.33-19.18l-.05,0c.43,0,.95-.16,1.27,0C397.08,209,407.18,214.68,416.7,221.32Z"/><path class="cls-1" d="M385.94,203l-.32-.24.27.28Z"/><path class="cls-7" d="M187.28,306.3a.55.55,0,0,0,0-.5l.87,0a6.85,6.85,0,0,1,.07.78Z"/><path class="cls-1" d="M350.74,30.23l0,1.43-.86-.61Z"/><path class="cls-10" d="M265,311.8c7.14-6.78,14.5-13.23,23.51-17.55,26.33-12.61,50.69-8.7,73.43,8.67,3.2,2.45,6.06,5.33,9.09,8,.85,1.17,1.66,2.36,2.56,3.49,11.64,14.62,17.77,31,15.9,49.89-1.67,16.79-9.33,30.59-21.5,41.92-14,13.06-30.91,19.46-50,20.32L304,425c-19.55-4.16-36-13.4-47.7-29.92-15.07-21.3-14.64-48.46.83-72.42C259.51,318.92,262.33,315.42,265,311.8Zm52.14,104.63a58.21,58.21,0,0,0,18.91-3c28.31-9.08,45.37-35.39,41.16-63.46-4.15-27.66-31.21-50.67-59.6-50.56-18.84.07-33.9,8.46-45.63,22.5-14.6,17.48-21,37.48-11.2,59.24C271.49,404.94,291.94,414.92,317.11,416.43Z"/><path class="cls-10" d="M426,314.12c10.45-11,22.48-19.53,37.41-23.41,23.21-6,43.42.35,61.6,15,2.14,1.72,4.19,3.55,6.27,5.33,5.11,6.65,10.43,13.13,14,20.88,15.82,34.83-.36,69.37-29.6,86.07-6.58,3.77-13.68,6.14-20.84,8.4-6.33,1.27-12.76,1.06-19.15,1.39a82.44,82.44,0,0,1-32.74-9.21c-27.63-14.4-41.13-42.53-34.16-71.75C411.65,334.46,418,323.85,426,314.12Zm53.11,102.16a54.92,54.92,0,0,0,15.27-1.9c38.58-9.63,56.14-47,37.61-80.92-17.5-32-56.9-46.75-89.58-21.47-17.93,13.87-27.36,32.41-23.63,55.46C423.31,395.65,449.16,416.27,479.08,416.28Z"/><path class="cls-9" d="M426,314.12c-8,9.73-14.32,20.34-17.26,32.69-7,29.22,6.53,57.35,34.16,71.75a82.44,82.44,0,0,0,32.74,9.21c-1.74,4.08-5.92,5.28-9.17,7.44-19.31,12.86-38.73,25.54-58.17,38.21-3.85,2.51-7.91,4.71-11.88,7.05,0-.55,0-1.1,0-1.65-.53-25,.83-50,.83-75.07q0-69.94.1-139.89L399,263c4.52,8.67,9,17.36,13.58,26C417,297.41,421.49,305.76,426,314.12Z"/><path class="cls-8" d="M397.33,263.86q-.06,69.94-.1,139.89c0,25-1.36,50-.83,75.07-5.1-2.13-9.28-5.74-13.84-8.71Q353.22,451,324,431.7c-2.18-1.44-5.13-2.16-6-5.15,19.07-.86,36-7.26,50-20.32,12.17-11.33,19.83-25.13,21.5-41.92,1.87-18.92-4.26-35.27-15.9-49.89-.9-1.13-1.71-2.32-2.56-3.49,2.95-5.27,5.87-10.55,8.85-15.79C385.76,284.75,390.64,273.81,397.33,263.86Z"/><path class="cls-11" d="M317.11,416.43c-25.17-1.51-45.62-11.49-56.36-35.27-9.83-21.76-3.4-41.76,11.2-59.24,11.73-14,26.79-22.43,45.63-22.5,28.39-.11,55.45,22.9,59.6,50.56,4.21,28.07-12.85,54.38-41.16,63.46A58.21,58.21,0,0,1,317.11,416.43Zm20.07-52.35c11.89.07,21.68-9,21.75-20.22.06-11.36-9.9-21.49-21.23-21.56s-22,10.59-22.18,22C315.38,355,325.26,364,337.18,364.08Z"/><path class="cls-11" d="M479.08,416.28c-29.92,0-55.77-20.63-60.33-48.83-3.73-23.05,5.7-41.59,23.63-55.46,32.68-25.28,72.08-10.52,89.58,21.47,18.53,33.88,1,71.29-37.61,80.92A54.92,54.92,0,0,1,479.08,416.28ZM500.77,323c-11.46,0-21.49,9.88-21.53,21.22,0,11,10,20.53,21.61,20.55,11.82,0,21.79-9,21.8-19.7C522.66,333.55,512.25,323.05,500.77,323Z"/><path class="cls-10" d="M337.18,364.08c-11.92-.08-21.8-9.11-21.66-19.79.15-11.4,10.9-22.06,22.18-22s21.29,10.2,21.23,21.56C358.86,355.05,349.07,364.15,337.18,364.08Z"/><path class="cls-10" d="M500.77,323c11.48,0,21.89,10.52,21.88,22.07,0,10.71-10,19.72-21.8,19.7-11.64,0-21.64-9.52-21.61-20.55C479.28,332.91,489.31,323,500.77,323Z"/></g></g></svg>