<svg xmlns="http://www.w3.org/2000/svg" viewBox="0 0 480.6 349.99"><defs><style>.cls-1{fill:#7d8cea;}.cls-2{fill:#f3bf5f;}.cls-3{fill:#f3d944;}.cls-4{fill:#f3d945;}.cls-5{fill:#f3d25f;}.cls-6{fill:#f3ae5e;}.cls-7{fill:#f3f259;}.cls-8{fill:#3955b0;}.cls-9{fill:#fbfbfb;}.cls-10{fill:#281612;}</style></defs><g id="Calque_2" data-name="Calque 2"><g id="Calque_1-2" data-name="Calque 1"><path class="cls-1" d="M72.07,169.26l14.22-40.39c.52,1,1.13,2,1.56,3q10.13,24.32,20.2,48.63c-2.64,3.62-5.46,7.12-7.89,10.87-15.47,24-15.9,51.12-.83,72.43,11.68,16.51,28.15,25.75,47.7,29.92-17.95,7.31-35.88,14.67-53.86,21.92Q51.88,332.3,10.53,348.81c4.43-13.14,8.78-26.31,13.29-39.42q15.1-43.9,30.29-87.77a29.87,29.87,0,0,0,.81-3.78c4.14-9,6.84-18.4,9.64-27.81C67.91,183.41,69.68,176.22,72.07,169.26Z"/><path class="cls-1" d="M426,214.67c2.36,10.16,6.43,19.76,9.77,29.59,11.32,33.26,22.91,66.43,34.38,99.64.5,1.47,1.39,2.92.88,4.61-.82-.28-1.65-.51-2.45-.83l-130.7-52.56c7.16-2.27,14.26-4.64,20.84-8.4,29.24-16.7,45.42-51.25,29.6-86.07-3.52-7.76-8.83-14.24-13.94-20.89l21.24-51.27q5.94,16.94,11.9,33.88c.52,1.48,1.21,2.9,1.82,4.34a146.83,146.83,0,0,0,7,20.53C419.12,196.52,422.21,205.71,426,214.67Z"/><path class="cls-2" d="M337.84,295.12l130.7,52.56c.8.32,1.63.55,2.45.83-.33.86-.82,1.54-1.86,1.47-25.16-1.62-50.35-.42-75.52-.64-19.43-.18-38.85,0-58.28,0q-49.11.21-98.23.54a33.24,33.24,0,0,1-3.43-.36l5.8-.36c4-2.34,8-4.54,11.89-7.05,19.43-12.67,38.85-25.35,58.16-38.21,3.25-2.16,7.43-3.36,9.17-7.44C325.08,296.17,331.51,296.38,337.84,295.12Z"/><path class="cls-3" d="M239.47,349.2l-5.8.36c-11.44.67-22.9.26-34.34.22-7.4,0-14.79-.39-22.18-.39q-83.07,0-166.15.07c-.16,0-.31-.43-.47-.65q41.33-16.56,82.64-33.14c18-7.25,35.91-14.61,53.86-21.93l14,1.55c.92,3,3.88,3.7,6.05,5.14q29.19,19.33,58.53,38.41c4.57,3,8.75,6.58,13.84,8.71C239.48,348.1,239.48,348.65,239.47,349.2Z"/><path class="cls-4" d="M395.58,128.49l-21.24,51.27c-2.09-1.78-4.14-3.61-6.28-5.33-18.18-14.64-38.39-21-61.6-15-14.92,3.88-27,12.38-37.4,23.41-4.48-8.36-9-16.71-13.44-25.1-4.57-8.64-9.05-17.33-13.58-26l-.9-2.17c1.77-.19,3.62.55,5.31-.46h.8c1.15,1.27,2.68.69,4.06.85,5.06.59,10-1.05,15-.8,21.7-.06,43.41.27,65.09-.28,20.82-.53,41.64-.32,62.46-.62A12.53,12.53,0,0,1,395.58,128.49Z"/><path class="cls-5" d="M241.14,129.58l.9,2.17-1.63.84c-6.68,9.95-11.57,20.9-17.48,31.28-3,5.24-5.9,10.53-8.85,15.79-3-2.68-5.89-5.56-9.09-8-22.74-17.37-47.1-21.28-73.43-8.66-9,4.31-16.37,10.77-23.51,17.54Q98,156.21,87.85,131.9c-.43-1-1-2-1.56-3a5,5,0,0,1,1.57-.58c19.72,0,39.46-.27,59.17.3,20.43.59,40.86.42,61.29.47Z"/><path class="cls-3" d="M241.14,129.58l-32.82-.52,34-38.2.22.07q1.94,19.09,3.88,38.19C244.76,130.13,242.91,129.39,241.14,129.58Z"/><path class="cls-6" d="M64.56,190c-2.8,9.41-5.5,18.86-9.64,27.81q-11.34-19.74-22.66-39.5c-.53-.93-1.59-1.8-1-3.13C42.8,179.19,53.59,184.81,64.56,190Z"/><path class="cls-6" d="M426,214.67c-3.75-9-6.84-18.15-9.68-27.43l33-15.33a1.83,1.83,0,0,1,.84.08.41.41,0,0,0,.11.43Z"/><path class="cls-4" d="M64.56,190c-11-5.22-21.76-10.84-33.28-14.82l0,.08c0-.27,0-.53-.06-.79l40.8-5.24C69.68,176.22,67.91,183.41,64.56,190Z"/><path class="cls-7" d="M449.31,171.91l-33,15.33a146.83,146.83,0,0,1-7-20.53Z"/><path class="cls-7" d="M246.45,129.12q-1.94-19.09-3.88-38.19c5.66-1.68,11.5-.11,17.21-.88.91.18,1.42.66,1.26,1.65a12.91,12.91,0,0,0-1.29,2.2q-6.28,17.59-12.5,35.21Z"/><path class="cls-6" d="M247.25,129.11q6.24-17.61,12.5-35.21A12.91,12.91,0,0,1,261,91.7q2.64,18.72,5.29,37.46c-5-.25-10,1.39-15,.8C249.93,129.8,248.4,130.38,247.25,129.11Z"/><path class="cls-6" d="M0,160.46c7.37-3.66,15.53-4.75,23.25-7.29,1.76-.58,1.93.62,2.2,1.75,1.49,6.28,3.58,12.42,4.38,18.86Z"/><path class="cls-1" d="M450.92,170.92c.83-6.13,2.84-12,4.21-18,.39-1.74,1.21-2.59,3-2,7.46,2.42,15.28,3.72,22.49,6.95C470.69,162.17,461.17,167.36,450.92,170.92Z"/><path class="cls-1" d="M0,160.46l29.83,13.32.57.75a.55.55,0,0,1,0,.5c-5.44,1.87-10.92,3.63-16.3,5.66-2.56,1-4.2,1-5.43-1.93C6,172.55,2.16,166.9,0,160.46Z"/><path class="cls-6" d="M450.92,170.92c10.25-3.56,19.77-8.75,29.68-13.07-2.2,7.07-6.29,13.25-9.43,19.87-1,2.09-2.7,1.05-4.15.55-5.59-1.92-11.17-3.9-16.76-5.85a.41.41,0,0,1-.11-.43C450.41,171.64,450.67,171.28,450.92,170.92Z"/><path class="cls-1" d="M259.78,90.05c-5.71.77-11.55-.8-17.21.88l-.22-.07L229,71.68l-.05,0c.42,0,.94-.16,1.26,0C240.16,77.72,250.26,83.41,259.78,90.05Z"/><path class="cls-1" d="M229,71.68l-.33-.24.28.28Z"/><path class="cls-8" d="M30.36,175a.55.55,0,0,0,0-.5l.87,0c0,.26.05.52.06.79Z"/><path class="cls-9" d="M108.05,180.53c7.14-6.77,14.5-13.23,23.51-17.54,26.33-12.62,50.69-8.71,73.43,8.66,3.2,2.45,6.07,5.33,9.09,8,.85,1.17,1.66,2.37,2.56,3.49,11.64,14.62,17.77,31,15.9,49.89-1.67,16.79-9.33,30.59-21.49,41.92-14,13.06-30.92,19.47-50,20.33l-14-1.55c-19.55-4.16-36-13.4-47.7-29.91-15.07-21.31-14.64-48.47.83-72.43C102.59,187.65,105.41,184.15,108.05,180.53Zm52.14,104.63a58.53,58.53,0,0,0,18.92-3c28.3-9.09,45.36-35.4,41.15-63.46-4.15-27.67-31.2-50.68-59.6-50.57-18.84.07-33.9,8.46-45.63,22.5-14.6,17.48-21,37.48-11.2,59.25C114.57,273.67,135,283.65,160.19,285.16Z"/><path class="cls-9" d="M269.06,182.85c10.44-11,22.48-19.53,37.4-23.41,23.21-6,43.42.35,61.6,15,2.14,1.72,4.19,3.55,6.28,5.33,5.11,6.65,10.42,13.13,13.94,20.89,15.82,34.82-.36,69.37-29.6,86.07-6.58,3.76-13.68,6.13-20.84,8.4-6.33,1.26-12.76,1.05-19.15,1.38A82.44,82.44,0,0,1,286,287.29c-27.63-14.39-41.13-42.53-34.16-71.74C254.73,203.19,261.08,192.58,269.06,182.85ZM322.16,285a55,55,0,0,0,15.28-1.9c38.57-9.63,56.13-47,37.6-80.91-17.5-32-56.9-46.76-89.58-21.48-17.93,13.87-27.36,32.41-23.63,55.46C266.39,264.38,292.24,285,322.16,285Z"/><path class="cls-6" d="M269.06,182.85c-8,9.73-14.33,20.34-17.27,32.7-7,29.21,6.53,57.35,34.16,71.74a82.44,82.44,0,0,0,32.74,9.21c-1.74,4.08-5.92,5.28-9.17,7.44-19.31,12.86-38.73,25.54-58.16,38.21-3.86,2.51-7.92,4.71-11.89,7.05,0-.55,0-1.1,0-1.65-.53-25,.83-50,.83-75.07q0-69.95.1-139.89l1.63-.84c4.53,8.67,9,17.36,13.58,26C260.06,166.14,264.58,174.49,269.06,182.85Z"/><path class="cls-7" d="M240.41,132.59q-.06,69.94-.1,139.89c0,25-1.36,50-.83,75.07-5.09-2.13-9.27-5.73-13.84-8.71q-29.32-19.09-58.53-38.41c-2.17-1.44-5.13-2.16-6.05-5.14,19.07-.86,36-7.27,50-20.33,12.16-11.33,19.82-25.13,21.49-41.92,1.87-18.92-4.26-35.27-15.9-49.89-.9-1.12-1.71-2.32-2.56-3.49,2.95-5.26,5.87-10.55,8.85-15.79C228.84,153.49,233.73,142.54,240.41,132.59Z"/><path class="cls-10" d="M160.19,285.16c-25.17-1.51-45.62-11.49-56.36-35.26-9.83-21.77-3.4-41.77,11.2-59.25,11.73-14,26.79-22.43,45.63-22.5,28.4-.11,55.45,22.9,59.6,50.57,4.21,28.06-12.85,54.37-41.15,63.46A58.53,58.53,0,0,1,160.19,285.16Zm20.08-52.35c11.88.07,21.67-9,21.74-20.21.07-11.37-9.9-21.5-21.23-21.57s-22,10.59-22.18,22C158.46,223.7,168.34,232.74,180.27,232.81Z"/><path class="cls-10" d="M322.16,285c-29.92,0-55.77-20.63-60.33-48.83-3.73-23.05,5.7-41.59,23.63-55.46,32.68-25.28,72.08-10.52,89.58,21.48,18.53,33.87,1,71.28-37.6,80.91A55,55,0,0,1,322.16,285Zm21.69-93.25c-11.45,0-21.49,9.88-21.52,21.22,0,11,10,20.54,21.6,20.55,11.82,0,21.8-9,21.8-19.7C365.74,202.28,355.34,191.78,343.85,191.76Z"/><path class="cls-9" d="M180.27,232.81c-11.93-.07-21.81-9.11-21.67-19.79.15-11.4,10.9-22.06,22.18-22s21.3,10.2,21.23,21.57C201.94,223.78,192.15,232.88,180.27,232.81Z"/><path class="cls-9" d="M343.85,191.76c11.49,0,21.89,10.52,21.88,22.07,0,10.71-10,19.72-21.8,19.7-11.64,0-21.64-9.52-21.6-20.55C322.36,201.64,332.4,191.74,343.85,191.76Z"/><path d="M59.19,41.33a19.56,19.56,0,0,1-5.64-.86A21.82,21.82,0,0,1,48.1,38a19.6,19.6,0,0,1-4.64-4.16A19.26,19.26,0,0,1,40.24,28a21.36,21.36,0,0,1-1.17-7.29,20.37,20.37,0,0,1,1.17-7.1,18.44,18.44,0,0,1,3.19-5.56,19.37,19.37,0,0,1,4.64-4,22.65,22.65,0,0,1,5.51-2.42A22.31,22.31,0,0,1,59.3.8a17,17,0,0,1,5,.65,22.93,22.93,0,0,1,3.45,1.34,18.75,18.75,0,0,1,1.74,1A16.52,16.52,0,0,1,71.22,5a2.44,2.44,0,0,1,.91,1.8A3,3,0,0,1,71.9,8a5.75,5.75,0,0,1-.63,1.11,5.35,5.35,0,0,1-1.34,1.48,2.26,2.26,0,0,1-1.34.46,2.21,2.21,0,0,1-1.16-.34l-1.34-.86a11.24,11.24,0,0,0-1.29-.74,13.76,13.76,0,0,0-2.31-.88A12.24,12.24,0,0,0,59,7.81a13.29,13.29,0,0,0-4.73.88A13.12,13.12,0,0,0,50,11.26a12.15,12.15,0,0,0-2.93,4.13A13.71,13.71,0,0,0,46,21a13.89,13.89,0,0,0,1.09,5.67A12,12,0,0,0,50,30.87a12.67,12.67,0,0,0,4.19,2.53,14.19,14.19,0,0,0,8.09.49,10,10,0,0,0,2.4-.92l1.48-.82c.42-.27.82-.51,1.2-.74a2.27,2.27,0,0,1,1.19-.34,2.32,2.32,0,0,1,1.34.45A5.5,5.5,0,0,1,71.27,33a7,7,0,0,1,.63,1.2,2.56,2.56,0,0,1,.17,1.2,2.43,2.43,0,0,1-.88,1.74,10.71,10.71,0,0,1-1.74,1.22c-.31.19-.89.53-1.77,1a15.92,15.92,0,0,1-3.42,1.34A18.7,18.7,0,0,1,59.19,41.33Z"/><path d="M90.25,41.44A13.84,13.84,0,0,1,85,40.36a15.89,15.89,0,0,1-4.7-3A13.79,13.79,0,0,1,77,32.8,14,14,0,0,1,75.78,27,14.35,14.35,0,0,1,80,16.76a14.51,14.51,0,0,1,4.59-3.11,14,14,0,0,1,5.56-1.11,14.18,14.18,0,0,1,7.3,1.91,14.47,14.47,0,0,1,5.18,5.16A14.08,14.08,0,0,1,104.56,27a14.35,14.35,0,0,1-1.2,5.93,13.89,13.89,0,0,1-3.24,4.59,14.79,14.79,0,0,1-4.62,2.93A13.91,13.91,0,0,1,90.25,41.44Zm-.11-6.78a7.61,7.61,0,0,0,7.58-7.81,7.83,7.83,0,0,0-1-3.94A6.71,6.71,0,0,0,94,20.26a8.25,8.25,0,0,0-4-.94,7.37,7.37,0,0,0-3.76,1A7.49,7.49,0,0,0,83.61,23a7.58,7.58,0,0,0-1,3.87A7.69,7.69,0,0,0,83.7,31a7.47,7.47,0,0,0,2.82,2.68A7.6,7.6,0,0,0,90.14,34.66Z"/><path d="M112.37,41a4.51,4.51,0,0,1-2.31-.45,1.92,1.92,0,0,1-.88-1.26,7.75,7.75,0,0,1-.17-1.71V16.3a6.37,6.37,0,0,1,.2-1.71,2,2,0,0,1,.91-1.19,4.48,4.48,0,0,1,2.36-.46,3.65,3.65,0,0,1,2.43.68,2.87,2.87,0,0,1,.77,2.23l-.52,1.54a5.45,5.45,0,0,1,1-1.37,12,12,0,0,1,1.68-1.48,8.65,8.65,0,0,1,2.25-1.2,7.5,7.5,0,0,1,2.63-.46,9.12,9.12,0,0,1,3.44.63,8.62,8.62,0,0,1,2.8,1.82,12.05,12.05,0,0,1,2.14,2.91,17.37,17.37,0,0,1,2.16-2.71A9.26,9.26,0,0,1,136,13.59a8.86,8.86,0,0,1,3.6-.71,9.07,9.07,0,0,1,5.55,1.66,10,10,0,0,1,3.39,4.7,20.74,20.74,0,0,1,1.14,7.27V37.56a7.66,7.66,0,0,1-.17,1.74,1.94,1.94,0,0,1-.88,1.23,4.64,4.64,0,0,1-2.37.45,4.21,4.21,0,0,1-2.3-.48,2,2,0,0,1-.89-1.26,8.25,8.25,0,0,1-.17-1.73V26.45a11.65,11.65,0,0,0-.51-3.65,5,5,0,0,0-1.54-2.37,4,4,0,0,0-2.62-.82,5.09,5.09,0,0,0-2.88.8,5.24,5.24,0,0,0-1.91,2.33,9.21,9.21,0,0,0-.68,3.77V37.62a5.48,5.48,0,0,1-.29,1.8,2.19,2.19,0,0,1-1.11,1.25A4.54,4.54,0,0,1,129,41a3.67,3.67,0,0,1-2.13-.57,2,2,0,0,1-.8-1.28,8.43,8.43,0,0,1-.14-1.62V26.45a12.31,12.31,0,0,0-.49-3.65,4.82,4.82,0,0,0-1.51-2.37,4,4,0,0,0-2.62-.82,5,5,0,0,0-3,.88,5.45,5.45,0,0,0-1.86,2.45,9.37,9.37,0,0,0-.62,3.51V37.62a7.16,7.16,0,0,1-.2,1.71,2,2,0,0,1-.91,1.23A5,5,0,0,1,112.37,41Z"/><path d="M158.65,41a4.28,4.28,0,0,1-2.31-.48,2.23,2.23,0,0,1-.91-1.26,7.05,7.05,0,0,1-.2-1.74V3.65a7.39,7.39,0,0,1,.2-1.8,2.05,2.05,0,0,1,.91-1.22,4.4,4.4,0,0,1,2.31-.46,4.18,4.18,0,0,1,2.28.46,2,2,0,0,1,.86,1.25A8.72,8.72,0,0,1,162,3.65V38.7a2.79,2.79,0,0,1-.94,1.8A4,4,0,0,1,158.65,41ZM170.11,41a10.63,10.63,0,0,1-8.69-4.16,13.5,13.5,0,0,1-2.28-4.47,18.46,18.46,0,0,1-.77-5.45,19.48,19.48,0,0,1,.85-5.44A13.74,13.74,0,0,1,161.53,17a10.47,10.47,0,0,1,8.58-4.07A11.55,11.55,0,0,1,175,14a13.2,13.2,0,0,1,4.13,3A14.26,14.26,0,0,1,183,26.85a15,15,0,0,1-1,5.55,14.09,14.09,0,0,1-2.83,4.51,13.31,13.31,0,0,1-4.1,3A11.49,11.49,0,0,1,170.11,41Zm-1-6.67a6.89,6.89,0,0,0,6.13-3.53,7.44,7.44,0,0,0,.94-3.76,7.85,7.85,0,0,0-.91-3.82,6.72,6.72,0,0,0-2.51-2.59,6.92,6.92,0,0,0-3.59-.94,6.86,6.86,0,0,0-6.07,3.53,7.54,7.54,0,0,0-.94,3.82,7.44,7.44,0,0,0,.94,3.76,6.84,6.84,0,0,0,2.53,2.59A6.73,6.73,0,0,0,169.14,34.31Z"/><path d="M201.12,41.44a13.76,13.76,0,0,1-5.3-1.08,15.94,15.94,0,0,1-4.71-3A13.89,13.89,0,0,1,186.64,27a14.26,14.26,0,0,1,1.11-5.64,14.61,14.61,0,0,1,7.7-7.73A13.93,13.93,0,0,1,201,12.54a14.18,14.18,0,0,1,7.3,1.91,14.5,14.5,0,0,1,5.19,5.16A14.08,14.08,0,0,1,215.42,27a14.34,14.34,0,0,1-1.19,5.93A13.91,13.91,0,0,1,211,37.48a14.79,14.79,0,0,1-4.62,2.93A13.89,13.89,0,0,1,201.12,41.44ZM201,34.66A7.66,7.66,0,0,0,207.47,31a7.67,7.67,0,0,0,1.11-4.16,7.93,7.93,0,0,0-1-3.94,6.78,6.78,0,0,0-2.71-2.65,8.27,8.27,0,0,0-4-.94A7.4,7.4,0,0,0,194.48,23a7.49,7.49,0,0,0-1,3.87A7.69,7.69,0,0,0,194.56,31a7.47,7.47,0,0,0,2.82,2.68A7.6,7.6,0,0,0,201,34.66Z"/><path d="M243.81,41a22.79,22.79,0,0,1-3.73-.28,8.71,8.71,0,0,1-2.8-1,5.81,5.81,0,0,1-1.93-1.86,7.87,7.87,0,0,1-1.12-2.87,22,22,0,0,1-.34-4.11V3.53a8.57,8.57,0,0,1,.17-1.79A2.06,2.06,0,0,1,235,.48,4.45,4.45,0,0,1,237.31,0a4.4,4.4,0,0,1,2.31.46,2,2,0,0,1,.91,1.25,7.43,7.43,0,0,1,.2,1.77V30.67a9.76,9.76,0,0,0,.14,1.79,2.41,2.41,0,0,0,.52,1.14,1.87,1.87,0,0,0,1,.6,5.49,5.49,0,0,0,1.45.17,5.06,5.06,0,0,1,1.34.17,1.64,1.64,0,0,1,1,.86,4.85,4.85,0,0,1,.37,2.22,5.51,5.51,0,0,1-.37,2.34,1.61,1.61,0,0,1-1,.91A5.11,5.11,0,0,1,243.81,41Z"/><path d="M264.16,41.44a16,16,0,0,1-6.5-1.23,12.88,12.88,0,0,1-4.62-3.3,14.76,14.76,0,0,1-2.76-4.68,15.58,15.58,0,0,1-.94-5.38,14,14,0,0,1,1.88-7.3,13.29,13.29,0,0,1,5.21-5,15.7,15.7,0,0,1,7.67-1.83,14,14,0,0,1,5.42,1,12,12,0,0,1,3.9,2.54,11.21,11.21,0,0,1,2.39,3.45,8.88,8.88,0,0,1,.83,3.64,5.78,5.78,0,0,1-1.45,4.39,5.1,5.1,0,0,1-3.62,1.37H256.52a5.46,5.46,0,0,0,1.22,3.36,7.76,7.76,0,0,0,3,2.2,9.31,9.31,0,0,0,3.68.77,16.74,16.74,0,0,0,2.5-.17,13.73,13.73,0,0,0,1.89-.43,13.29,13.29,0,0,0,1.42-.54c.42-.19.79-.36,1.11-.52a3.23,3.23,0,0,1,.94-.28,2.33,2.33,0,0,1,1.31.28,2.54,2.54,0,0,1,1,1.2,4.22,4.22,0,0,1,.48,1.06,3.13,3.13,0,0,1,.15.94,2.8,2.8,0,0,1-1.37,2.16A11,11,0,0,1,270,40.78,22.86,22.86,0,0,1,264.16,41.44ZM256.52,25H268.2a2.73,2.73,0,0,0,1.46-.31,1.51,1.51,0,0,0,.48-1.34,3.69,3.69,0,0,0-.8-2.34,5.71,5.71,0,0,0-2.16-1.65,7.43,7.43,0,0,0-3.14-.63,8.47,8.47,0,0,0-3.82.86,7,7,0,0,0-2.7,2.28A5.3,5.3,0,0,0,256.52,25Z"/><path d="M299.33,41a4.64,4.64,0,0,1-2.34-.45,1.91,1.91,0,0,1-.91-1.29,8.12,8.12,0,0,1-.17-1.73V4.62a6.35,6.35,0,0,1,.2-1.68,2.06,2.06,0,0,1,.94-1.26,4.38,4.38,0,0,1,2.33-.48h12.2a15.09,15.09,0,0,1,5,.82,12.21,12.21,0,0,1,7.27,6.76,14.56,14.56,0,0,1,1.11,5.93,14.83,14.83,0,0,1-.68,4.36,14.5,14.5,0,0,1-2,4.07,11.56,11.56,0,0,1-3.42,3.17A12.61,12.61,0,0,1,314,28H302.8v9.57a6.68,6.68,0,0,1-.2,1.71,2,2,0,0,1-.91,1.26A4.6,4.6,0,0,1,299.33,41Zm3.47-19.83h9.64a6,6,0,0,0,2-.37,4.72,4.72,0,0,0,1.77-1.2,6.58,6.58,0,0,0,1.25-2,7.83,7.83,0,0,0,.49-2.91,7.46,7.46,0,0,0-.77-3.51A5.25,5.25,0,0,0,315,8.92a7.41,7.41,0,0,0-3.5-.77H302.8Zm20.75,19c-1.1.8-2,1.09-2.68.88a4.5,4.5,0,0,1-2.11-1.85l-9.57-14.48,7.75-1,7.58,11.51a5.7,5.7,0,0,1,1,1.94,1.86,1.86,0,0,1-.29,1.48A6.42,6.42,0,0,1,323.55,40.13Z"/><path d="M343.56,41.44a13.76,13.76,0,0,1-5.3-1.08,15.94,15.94,0,0,1-4.71-3A13.89,13.89,0,0,1,329.08,27a14.26,14.26,0,0,1,1.11-5.64,14.61,14.61,0,0,1,7.7-7.73,14,14,0,0,1,5.55-1.11,14.18,14.18,0,0,1,7.3,1.91,14.5,14.5,0,0,1,5.19,5.16A14.08,14.08,0,0,1,357.87,27a14.35,14.35,0,0,1-1.2,5.93,13.91,13.91,0,0,1-3.25,4.59,14.79,14.79,0,0,1-4.62,2.93A13.89,13.89,0,0,1,343.56,41.44Zm-.12-6.78A7.66,7.66,0,0,0,349.91,31,7.68,7.68,0,0,0,351,26.85a7.93,7.93,0,0,0-1-3.94,6.78,6.78,0,0,0-2.71-2.65,8.27,8.27,0,0,0-4-.94A7.4,7.4,0,0,0,336.92,23a7.49,7.49,0,0,0-1,3.87A7.69,7.69,0,0,0,337,31a7.47,7.47,0,0,0,2.82,2.68A7.6,7.6,0,0,0,343.44,34.66Z"/><path d="M365.56,41a4.25,4.25,0,0,1-2.31-.48,2.18,2.18,0,0,1-.91-1.26,6.6,6.6,0,0,1-.2-1.74V3.65a6.93,6.93,0,0,1,.2-1.8,2,2,0,0,1,.91-1.22,4.37,4.37,0,0,1,2.31-.46,4.23,4.23,0,0,1,2.28.46,1.93,1.93,0,0,1,.85,1.25,8,8,0,0,1,.18,1.77V38.7a2.79,2.79,0,0,1-.95,1.8A4,4,0,0,1,365.56,41ZM377,41a10.66,10.66,0,0,1-8.7-4.16A13.88,13.88,0,0,1,366,32.35a18.79,18.79,0,0,1-.77-5.45,19.48,19.48,0,0,1,.86-5.44A13.74,13.74,0,0,1,368.44,17,10.47,10.47,0,0,1,377,12.94a11.55,11.55,0,0,1,4.9,1.08,13.32,13.32,0,0,1,4.13,3,14.39,14.39,0,0,1,3.85,9.84,14.8,14.8,0,0,1-1,5.55,13.9,13.9,0,0,1-2.82,4.51,13.43,13.43,0,0,1-4.1,3A11.52,11.52,0,0,1,377,41Zm-1-6.67a6.92,6.92,0,0,0,3.59-.94,6.84,6.84,0,0,0,2.53-2.59,7.45,7.45,0,0,0,.95-3.76,7.74,7.74,0,0,0-.92-3.82,6.7,6.7,0,0,0-2.5-2.59,7,7,0,0,0-3.6-.94,6.78,6.78,0,0,0-3.53.94A6.94,6.94,0,0,0,370,23.2a7.64,7.64,0,0,0-.94,3.82,7.55,7.55,0,0,0,.94,3.76,6.94,6.94,0,0,0,2.54,2.59A6.68,6.68,0,0,0,376.05,34.31Z"/><path d="M408,41.44a13.84,13.84,0,0,1-5.3-1.08,15.89,15.89,0,0,1-4.7-3,13.79,13.79,0,0,1-3.28-4.56A14,14,0,0,1,393.55,27a14.35,14.35,0,0,1,4.21-10.26,14.51,14.51,0,0,1,4.59-3.11,14,14,0,0,1,5.56-1.11,14.18,14.18,0,0,1,7.3,1.91,14.47,14.47,0,0,1,5.18,5.16A14.08,14.08,0,0,1,422.33,27a14.35,14.35,0,0,1-1.2,5.93,13.77,13.77,0,0,1-3.25,4.59,14.63,14.63,0,0,1-4.61,2.93A13.91,13.91,0,0,1,408,41.44Zm-.11-6.78a7.61,7.61,0,0,0,7.58-7.81,7.83,7.83,0,0,0-1-3.94,6.78,6.78,0,0,0-2.71-2.65,8.27,8.27,0,0,0-4-.94,7.37,7.37,0,0,0-3.76,1A7.49,7.49,0,0,0,401.38,23a7.58,7.58,0,0,0-1,3.87A7.69,7.69,0,0,0,401.47,31a7.47,7.47,0,0,0,2.82,2.68A7.6,7.6,0,0,0,407.91,34.66Z"/><path d="M427.86,13.51l5.87.06,7.87-.23a6.58,6.58,0,0,1,1.73.2,2,2,0,0,1,1.23.91,4.47,4.47,0,0,1,.46,2.31,4.32,4.32,0,0,1-.46,2.25,2.09,2.09,0,0,1-1.2.94,5.85,5.85,0,0,1-1.71.23L434,20l-6.33,0a2.5,2.5,0,0,1-2-.79,4.41,4.41,0,0,1-.54-2.51,3.77,3.77,0,0,1,.66-2.48A2.59,2.59,0,0,1,427.86,13.51ZM440.68,41a17.54,17.54,0,0,1-4.78-.57,7.85,7.85,0,0,1-3.28-1.77,6.72,6.72,0,0,1-1.85-3.1,16,16,0,0,1-.57-4.53V6.9a7.66,7.66,0,0,1,.17-1.74,1.83,1.83,0,0,1,.88-1.2,4.74,4.74,0,0,1,2.31-.43,4.5,4.5,0,0,1,2.31.46,2,2,0,0,1,.91,1.23A7,7,0,0,1,437,7V30.84a7.4,7.4,0,0,0,.2,1.94,2.14,2.14,0,0,0,.63,1.11,2.41,2.41,0,0,0,1.14.51,8.57,8.57,0,0,0,1.73.14,9,9,0,0,1,1.86.17,1.75,1.75,0,0,1,1.16.83,4.26,4.26,0,0,1,.4,2.14,4.28,4.28,0,0,1-.48,2.31,2,2,0,0,1-1.25.88A8.13,8.13,0,0,1,440.68,41Z"/></g></g></svg>