<svg xmlns="http://www.w3.org/2000/svg" viewBox="0 0 1906.47 475.5"><defs><style>.cls-1{fill:#f0ff35;}.cls-2{fill:#ff6a87;}.cls-3{fill:#e29fff;}</style></defs><g id="Calque_2" data-name="Calque 2"><g id="Calque_1-2" data-name="Calque 1"><path class="cls-1" d="M16.06,475.5c173.08-89.93,354.51-164.56,541.57-220.06,29.29-8.53,59.73-16.8,89.31-24,34.43-8.51,70.64-16.32,105.51-22.73C813,197.75,874.77,190,936.27,187.89c51.38-1.65,103.19.44,154,8.91,238.28,46.81,486-15.91,695.79-131.55C1821.9,45.31,1857.16,24.09,1890.41,0c-8.18,6.2-16.61,12.08-25.09,17.87-212.64,141-473.9,226.3-730.2,191.12-13.66-1.84-32.09-5.14-45.67-7.38-55.48-9.18-112.21-10.78-168.36-8.09-45.79,2.15-92.19,7.47-137.47,14.74-24.63,3.88-51.16,9-75.6,14-240.73,52.09-472,143.34-692,253.26Z"/><path class="cls-2" d="M4.66,459.43c177.65-80.52,362.82-145.32,552.59-190.7,29.71-6.94,60.54-13.57,90.47-19.2,34.83-6.66,71.41-12.52,106.57-17.05,61.05-7.66,123.15-12.11,184.68-10.9,51.39,1.11,103,6,153.28,17.16,235.43,59.52,486.12,10.17,701.84-94.05,36.88-18,73.23-37.29,107.72-59.56-8.5,5.75-17.23,11.17-26,16.5C1655.91,231,1390.44,302.19,1136.4,253.32c-13.54-2.58-31.76-6.85-45.2-9.83-54.92-12.13-111.48-16.77-167.69-17.1-45.84-.31-92.46,2.52-138.06,7.35-24.81,2.55-51.57,6.21-76.24,9.9C466,282.75,230.17,361.47,4.66,459.43Z"/><path class="cls-3" d="M0,469c179.74-75.75,366.58-135.59,557.48-175.89,29.89-6.15,60.89-11.95,91-16.79,35-5.72,71.71-10.6,107-14.19,61.22-6,123.42-8.82,184.9-6,51.34,2.48,102.82,8.72,152.76,21.24,233.76,65.78,485.68,23.14,704.11-75.29,37.34-17,74.19-35.32,109.27-56.67-8.66,5.53-17.53,10.71-26.44,15.81-223.27,123.46-490.54,187.53-743.19,131.9-13.46-2.93-31.57-7.69-44.93-11-54.57-13.59-111-19.74-167.17-21.57-45.81-1.53-92.49.06-138.2,3.67-24.87,1.89-51.72,4.83-76.48,7.86C465.92,304.69,228,377.08,0,469Z"/></g></g></svg>