<svg xmlns="http://www.w3.org/2000/svg" viewBox="0 0 963.68 963.68"><defs><style>.cls-1{fill:#1fcfff;}.cls-2{fill:#fff;}.cls-3{fill:#7d8cea;}.cls-4{fill:#f3bf5f;}.cls-5{fill:#f3d944;}.cls-6{fill:#f3d945;}.cls-7{fill:#f3d25f;}.cls-8{fill:#f3ae5e;}.cls-9{fill:#f3f259;}.cls-10{fill:#3955b0;}.cls-11{fill:#fbfbfb;}.cls-12{fill:#281612;}</style></defs><g id="Calque_2" data-name="Calque 2"><g id="Calque_1-2" data-name="Calque 1"><circle class="cls-1" cx="481.84" cy="481.84" r="481.84"/><path class="cls-2" d="M412.12,265.68c-.3-2.44-.53-4.89-.93-7.31-.88-5.45-.91-5.39,4.78-6.17,7-1,14.09-1.82,21.06-3.13,2.8-.53,3.36.27,3.72,2.77,3,21.07,6.12,42.12,9.19,63.18q2.32,15.9,4.6,31.81c3.72,26.42-11.16,53.16-35.69,64.15-24.81,11.13-54.9,4.61-72.24-15.49-2-2.3-2.27-3.34.65-5,6-3.43,11.88-7.21,17.72-11,1.83-1.18,2.9-1.32,4.67.45,9.77,9.79,25.69,12.7,37.32,7.11S426.42,367.8,424.81,354c-1.82-15.53-3.87-31-6.55-46.44-3.12-17.9-22.38-29.06-40.23-23.95C360.75,288.57,351.16,308,357.64,325s26.43,25.07,42.73,17.24c2.59-1.24,3.86-1.22,5.56,1.19,3.17,4.5,6.59,8.84,10.16,13,1.89,2.22,1.5,3.42-.56,5.23-10.76,9.48-23.59,12.08-37.29,10.88-29.56-2.6-52.05-25.85-53.6-54.94-1.57-29.29,18.43-54.9,47.61-60.73,14.45-2.89,27.64-.22,39,9.66l.86.61Z"/><path class="cls-2" d="M619.66,288c1-4.09,1.93-7.57,2.67-11.1.43-2,.92-2.9,3.41-2.24,7.84,2.07,15.77,3.76,23.66,5.63,1.56.37,2.74.58,2.14,3.06q-12.69,52.28-25,104.63c-.55,2.32-1.41,2.91-3.86,2.25-7.54-2-15.13-3.95-22.78-5.51-2.91-.59-3-1.69-2.4-4.1q6.31-25.69,12.41-51.44a30.68,30.68,0,0,0-12.08-32.57c-11.35-8-23.18-8.17-35.09-1.28-10.6,6.13-16.14,18.2-14.41,30.74,2.2,16,17.38,28.06,33.73,26.66,1.77-.15,2.51,0,3,1.89,1.55,6,3.25,12,5.15,17.93.79,2.48-.21,3.31-2.25,4-13.62,4.53-26.67,2.39-39.11-3.86-28.06-14.08-39.5-48.08-26.12-76.89,12.88-27.73,46.56-40.69,75-28.85C606.84,270.72,612.14,275.74,619.66,288Z"/><path class="cls-2" d="M761,354.29c6.91-2.74,13.72-4.94,20.92-4.33,25.35,2.12,39.79,22.53,33.49,47.17a69.09,69.09,0,0,1-7.47,18c-10.9,18.42-21.86,36.81-32.64,55.3-1.47,2.52-2.52,2.55-4.79,1.14-6.63-4.12-13.33-8.16-20.17-11.92-2.58-1.42-2.72-2.43-1.25-4.87q16.49-27.3,32.66-54.79c6.37-10.84.62-23.75-11.53-26.44-7-1.56-14.67,2.12-19,9.31-10.5,17.65-21,35.27-31.28,53.08-2.16,3.74-3.7,3.92-7.09,1.67-5.91-3.9-12.09-7.41-18.3-10.82-2.71-1.49-3.28-2.63-1.55-5.5,10.6-17.59,21-35.31,31.45-53,5.73-9.65,4.45-17.55-4.24-24.91a4.13,4.13,0,0,1-1.64-3.7c.24-6.22.62-12.45.47-18.67-.08-3.29,1.05-4.21,4.13-4.33,18.16-.7,34.44,12.73,36.89,30.61C760.38,349.42,760.63,351.57,761,354.29Z"/><path class="cls-2" d="M121.55,371c33.89,1.94,58.63,29,56.49,61.69-2.11,32.33-29.7,56.93-61.57,54.91-33.44-2.13-56.89-29-55-62.92C63.2,394.25,91.2,369.23,121.55,371Zm26.6,62.63a35.44,35.44,0,0,0-21.48-32c-19.38-8-38.3,5.57-36.24,26a35.69,35.69,0,0,0,25.15,30.22C132.9,462.94,148.15,451.62,148.15,433.6Z"/><path class="cls-2" d="M193.09,331.79c8.06-22.21,24.94-34.13,48.52-34.82,2.61-.08,2.72,1,2.55,3.1-.61,7.36-1.19,14.72-1.42,22.09-.08,2.78-.72,3.53-3.6,3.66-20.06,1-33.89,17.69-30.4,36.72,1.1,6,4.76,11.12,7.34,16.59q9.27,19.59,19,39c1.3,2.6.9,3.52-1.64,4.68q-11,5-21.84,10.62c-2.45,1.26-3.38.72-4.51-1.61q-23-47.4-46.15-94.69c-1.62-3.28-1.08-4.54,2.16-6,6.74-3,13.45-6.09,19.86-9.7,3.66-2.06,5-.92,6.24,2.37C190.19,326.43,191.64,328.89,193.09,331.79Z"/><path class="cls-2" d="M660.5,406.46c-.68-.38-1.31-.72-1.94-1.09-7-4.1-13.92-8.27-21-12.26-2.09-1.19-2.4-2.18-1.12-4.32Q663.75,343,690.8,297c1.33-2.26,2.25-2.69,4.57-1.25,6.87,4.28,13.86,8.37,20.9,12.36,2,1.15,2.19,2,1,4q-27.35,46-54.59,92.12C662.18,405.12,662,406.48,660.5,406.46Z"/><path class="cls-2" d="M289.51,278.28c1.72.37,1.51,2.12,1.92,3.34q11.31,34.14,22.52,68.32c3.56,10.84,7,21.71,10.7,32.49.84,2.43.35,3.16-2,3.88-7.6,2.32-15.13,4.85-22.65,7.44-2.25.78-3.4.79-4.28-1.93q-16.53-50.9-33.31-101.7c-.43-1.33-1.45-2.56.94-3.31,8.42-2.66,16.77-5.51,25.15-8.28C288.76,278.44,289.05,278.39,289.51,278.28Z"/><path class="cls-2" d="M801.35,504.56c-6.94-6.09-13.74-12.16-20.67-18.08-1.83-1.56-1.53-2.46-.07-4.1q35.57-40.12,71-80.4c1.59-1.81,2.54-2,4.37-.3,6,5.48,12.11,10.77,18.19,16.14,1.22,1.07,2.35,1.82.64,3.74Q838,462.94,801.35,504.56Z"/><path class="cls-2" d="M468.92,348.61c.07-10.41,7.55-17.83,17.84-17.69s18,7.71,17.89,17.8a18.25,18.25,0,0,1-18.26,18.2C476.4,366.74,468.85,358.83,468.92,348.61Z"/><path class="cls-2" d="M883.2,366c1.23,1,1.93,1.5,2.57,2.07,5.87,5.18,11.61,10.51,17.63,15.5,2.5,2.06,2.1,3.36.18,5.43q-6.8,7.32-13.25,15c-1.41,1.66-2.32,1.92-4,.36q-9-8.19-18.25-16.09c-1.76-1.51-2.22-2.46-.4-4.4,4.85-5.18,9.44-10.6,14.12-15.93C882.31,367.25,882.75,366.56,883.2,366Z"/><path class="cls-2" d="M274.77,235.54c1.43-.39,1.71.55,2.05,1.59,2.31,7.15,4.58,14.3,7,21.39.65,1.88-.15,2.17-1.58,2.63-8.12,2.6-16.24,5.2-24.3,8-1.91.66-2.55.18-3.1-1.55-2.21-6.88-4.52-13.72-6.73-20.59-.31-1-1.16-2.21.68-2.81Q261.81,239.9,274.77,235.54Z"/><path class="cls-2" d="M412.12,265.68l0,1.43-.86-.61Z"/><path class="cls-3" d="M312.76,490.28,327,449.89c.53,1,1.14,2,1.57,3q10.13,24.32,20.2,48.63c-2.64,3.62-5.46,7.12-7.89,10.87-15.47,24-15.9,51.12-.83,72.42,11.68,16.52,28.15,25.76,47.7,29.92-18,7.31-35.88,14.68-53.86,21.92q-41.3,16.65-82.64,33.15c4.42-13.15,8.78-26.31,13.29-39.43q15.09-43.89,30.29-87.76a29.66,29.66,0,0,0,.81-3.79c4.13-9,6.84-18.39,9.64-27.8C308.6,504.43,310.38,497.24,312.76,490.28Z"/><path class="cls-3" d="M666.66,535.68c2.35,10.17,6.42,19.77,9.77,29.6,11.32,33.26,22.91,66.43,34.37,99.64.51,1.47,1.39,2.92.89,4.61-.82-.28-1.66-.51-2.46-.83L578.54,616.13c7.16-2.26,14.26-4.64,20.84-8.4,29.24-16.7,45.42-51.24,29.6-86.07-3.52-7.75-8.84-14.23-14-20.88l21.25-51.27q5.94,16.94,11.89,33.87c.53,1.48,1.22,2.91,1.83,4.35a147.27,147.27,0,0,0,7,20.53A288.56,288.56,0,0,0,666.66,535.68Z"/><path class="cls-4" d="M578.53,616.13l130.7,52.57c.8.32,1.64.55,2.46.83-.33.85-.82,1.54-1.86,1.47-25.17-1.62-50.35-.42-75.53-.65-19.42-.17-38.85,0-58.27,0q-49.12.23-98.23.54a30.66,30.66,0,0,1-3.43-.35l5.8-.36c4-2.34,8-4.54,11.88-7.05,19.44-12.67,38.86-25.35,58.17-38.21,3.25-2.16,7.43-3.36,9.17-7.44C565.78,617.19,572.21,617.4,578.53,616.13Z"/><path class="cls-5" d="M480.17,670.22l-5.8.36c-11.44.67-22.9.26-34.35.22-7.39,0-14.78-.39-22.17-.39q-83.07,0-166.15.07c-.16,0-.32-.43-.47-.66q41.32-16.56,82.64-33.14c18-7.24,35.91-14.61,53.86-21.92l14,1.54c.92,3,3.87,3.71,6.05,5.15q29.18,19.34,58.53,38.41c4.56,3,8.74,6.57,13.84,8.71C480.18,669.12,480.17,669.67,480.17,670.22Z"/><path class="cls-6" d="M636.28,449.51,615,500.78c-2.08-1.78-4.13-3.61-6.27-5.33-18.18-14.64-38.39-21-61.61-15-14.92,3.88-27,12.38-37.4,23.41-4.48-8.36-9-16.71-13.43-25.1-4.57-8.64-9.06-17.33-13.58-26l-.9-2.17c1.77-.19,3.61.55,5.31-.46h.8c1.15,1.27,2.68.69,4.06.85,5.05.59,10-1.05,15-.81,21.7-.05,43.41.28,65.09-.27,20.82-.53,41.64-.33,62.45-.62A11.27,11.27,0,0,1,636.28,449.51Z"/><path class="cls-7" d="M481.84,450.6l.9,2.17-1.63.84c-6.69,9.94-11.57,20.89-17.48,31.27-3,5.25-5.9,10.53-8.85,15.8-3-2.68-5.89-5.57-9.09-8C423,475.3,398.59,471.39,372.26,484c-9,4.32-16.37,10.77-23.51,17.55q-10.1-24.32-20.2-48.63c-.43-1.05-1-2-1.57-3a5.06,5.06,0,0,1,1.58-.58c19.72,0,39.45-.27,59.16.3,20.44.58,40.86.42,61.29.47Z"/><path class="cls-5" d="M481.84,450.6,449,450.08l34-38.2.22.07q1.94,19.1,3.88,38.19C485.45,451.15,483.61,450.41,481.84,450.6Z"/><path class="cls-8" d="M305.26,511.05c-2.8,9.41-5.51,18.85-9.64,27.8Q284.28,519.11,273,499.36c-.53-.93-1.59-1.8-1-3.13C283.49,500.21,294.29,505.83,305.26,511.05Z"/><path class="cls-8" d="M666.66,535.68A288.56,288.56,0,0,1,657,508.26l33-15.33a1.83,1.83,0,0,1,.84.08.39.39,0,0,0,.11.42Z"/><path class="cls-6" d="M305.26,511.05c-11-5.22-21.77-10.84-33.29-14.82l.06.07a6.85,6.85,0,0,0-.07-.78l40.8-5.24C310.38,497.24,308.6,504.43,305.26,511.05Z"/><path class="cls-9" d="M690,492.93l-33,15.33a147.27,147.27,0,0,1-7-20.53Z"/><path class="cls-9" d="M487.15,450.14Q485.2,431,483.27,412c5.66-1.68,11.5-.11,17.21-.88.9.18,1.42.65,1.26,1.65a13.66,13.66,0,0,0-1.3,2.2q-6.27,17.59-12.49,35.21Z"/><path class="cls-8" d="M488,450.13q6.24-17.61,12.49-35.21a13.66,13.66,0,0,1,1.3-2.2L507,450.17c-5-.24-10,1.4-15,.81C490.63,450.82,489.1,451.4,488,450.13Z"/><path class="cls-8" d="M240.7,481.48c7.36-3.66,15.53-4.76,23.25-7.3,1.76-.58,1.93.63,2.2,1.75,1.49,6.29,3.58,12.43,4.38,18.87Z"/><path class="cls-3" d="M691.62,491.94c.83-6.14,2.84-12,4.2-18,.4-1.74,1.22-2.59,3-2,7.46,2.42,15.28,3.72,22.49,6.95C711.39,483.19,701.87,488.38,691.62,491.94Z"/><path class="cls-3" d="M240.7,481.48l29.83,13.32.56.75a.55.55,0,0,1,0,.5c-5.44,1.87-10.92,3.63-16.3,5.66-2.56,1-4.2,1-5.43-1.93C246.71,493.56,242.86,487.92,240.7,481.48Z"/><path class="cls-8" d="M691.62,491.94c10.25-3.56,19.77-8.75,29.68-13.07-2.21,7.07-6.29,13.25-9.43,19.87-1,2.08-2.7,1.05-4.15.55-5.6-1.92-11.18-3.9-16.76-5.86a.39.39,0,0,1-.11-.42Z"/><path class="cls-3" d="M500.48,411.07c-5.71.77-11.55-.8-17.21.88l-.22-.07-13.33-19.19-.05.05c.43,0,.95-.17,1.26,0C480.86,398.74,491,404.43,500.48,411.07Z"/><path class="cls-3" d="M469.72,392.69l-.32-.23.27.28Z"/><path class="cls-10" d="M271.06,496.05a.55.55,0,0,0,0-.5l.87,0a6.85,6.85,0,0,1,.07.78Z"/><path class="cls-11" d="M348.75,501.55c7.14-6.78,14.5-13.23,23.51-17.55,26.33-12.61,50.69-8.7,73.43,8.67,3.2,2.44,6.06,5.33,9.09,8,.85,1.16,1.66,2.36,2.56,3.49,11.64,14.61,17.77,31,15.9,49.89-1.67,16.79-9.33,30.59-21.5,41.92-14,13.06-30.91,19.46-50,20.32l-14-1.54c-19.55-4.16-36-13.4-47.7-29.92-15.07-21.3-14.64-48.46.83-72.42C343.29,508.67,346.11,505.17,348.75,501.55Zm52.14,104.63a58.48,58.48,0,0,0,18.91-3c28.31-9.08,45.37-35.4,41.16-63.46-4.15-27.66-31.21-50.67-59.6-50.56-18.84.07-33.9,8.46-45.63,22.5-14.6,17.48-21,37.48-11.2,59.24C355.27,594.69,375.72,604.67,400.89,606.18Z"/><path class="cls-11" d="M509.75,503.87c10.44-11,22.48-19.53,37.4-23.41,23.22-6,43.43.35,61.61,15,2.14,1.72,4.19,3.55,6.27,5.33,5.11,6.65,10.43,13.13,14,20.88,15.82,34.83-.36,69.37-29.6,86.07-6.58,3.76-13.68,6.14-20.84,8.4-6.33,1.27-12.76,1.06-19.15,1.39a82.45,82.45,0,0,1-32.74-9.22c-27.63-14.39-41.13-42.53-34.16-71.74C495.43,524.21,501.78,513.6,509.75,503.87ZM562.86,606a54.92,54.92,0,0,0,15.27-1.9c38.58-9.63,56.14-47,37.61-80.92-17.5-32-56.9-46.75-89.58-21.47-17.93,13.87-27.36,32.41-23.63,55.46C507.09,585.4,532.94,606,562.86,606Z"/><path class="cls-8" d="M509.75,503.87c-8,9.73-14.32,20.34-17.26,32.69-7,29.21,6.53,57.35,34.16,71.74a82.45,82.45,0,0,0,32.74,9.22c-1.74,4.08-5.92,5.28-9.17,7.44-19.31,12.86-38.73,25.54-58.17,38.21-3.85,2.51-7.91,4.71-11.88,7.05,0-.55,0-1.1,0-1.65-.53-25,.83-50,.83-75.07q0-69.94.1-139.89l1.63-.84c4.52,8.67,9,17.36,13.58,26C500.76,487.16,505.27,495.51,509.75,503.87Z"/><path class="cls-9" d="M481.11,453.61q-.06,69.95-.1,139.89c0,25-1.36,50-.83,75.07-5.1-2.14-9.28-5.74-13.84-8.71q-29.34-19.1-58.53-38.41c-2.18-1.44-5.13-2.16-6.05-5.15,19.07-.86,36-7.26,50-20.32,12.17-11.33,19.83-25.13,21.5-41.92,1.87-18.92-4.26-35.28-15.9-49.89-.9-1.13-1.71-2.33-2.56-3.49,3-5.27,5.87-10.55,8.85-15.8C469.54,474.5,474.42,463.55,481.11,453.61Z"/><path class="cls-12" d="M400.89,606.18c-25.17-1.51-45.62-11.49-56.36-35.27-9.83-21.76-3.4-41.76,11.2-59.24,11.73-14,26.79-22.43,45.63-22.5,28.39-.11,55.45,22.9,59.6,50.56,4.21,28.06-12.85,54.38-41.16,63.46A58.48,58.48,0,0,1,400.89,606.18ZM421,553.83c11.89.07,21.68-9,21.75-20.22.06-11.37-9.9-21.49-21.23-21.56s-22,10.59-22.18,22C399.16,544.72,409,553.75,421,553.83Z"/><path class="cls-12" d="M562.86,606c-29.92,0-55.77-20.63-60.33-48.83-3.73-23.05,5.7-41.59,23.63-55.46,32.68-25.28,72.08-10.52,89.58,21.47,18.53,33.88,1,71.29-37.61,80.92A54.92,54.92,0,0,1,562.86,606Zm21.69-93.25c-11.46,0-21.5,9.88-21.53,21.22,0,11,10,20.53,21.61,20.55,11.82,0,21.79-9,21.8-19.7C606.44,523.3,596,512.8,584.55,512.78Z"/><path class="cls-11" d="M421,553.83c-11.92-.08-21.8-9.11-21.66-19.8.15-11.39,10.9-22,22.18-22s21.29,10.19,21.23,21.56C442.64,544.8,432.85,553.9,421,553.83Z"/><path class="cls-11" d="M584.55,512.78c11.48,0,21.89,10.52,21.88,22.07,0,10.71-10,19.72-21.8,19.7C573,554.53,563,545,563,534,563.05,522.66,573.09,512.76,584.55,512.78Z"/></g></g></svg>