<svg width="100%" height="100%" id="svg" viewBox="0 0 1440 700" xmlns="http://www.w3.org/2000/svg" class="transition duration-300 ease-in-out delay-150"><defs><linearGradient id="gradient" x1="46%" y1="0%" x2="54%" y2="100%"><stop offset="5%" stop-color="#002bdc44"></stop><stop offset="95%" stop-color="#fcb90044"></stop></linearGradient></defs><path d="M 0,700 C 0,700 0,140 0,140 C 159.86666666666667,136.8 319.73333333333335,133.6 470,142 C 620.2666666666667,150.4 760.9333333333334,170.4 921,172 C 1081.0666666666666,173.6 1260.5333333333333,156.8 1440,140 C 1440,140 1440,700 1440,700 Z" stroke="none" stroke-width="0" fill="url(#gradient)" class="transition-all duration-300 ease-in-out delay-150 path-0"></path><defs><linearGradient id="gradient" x1="46%" y1="0%" x2="54%" y2="100%"><stop offset="5%" stop-color="#002bdc66"></stop><stop offset="95%" stop-color="#fcb90066"></stop></linearGradient></defs><path d="M 0,700 C 0,700 0,280 0,280 C 169.7333333333333,284.1333333333333 339.4666666666666,288.2666666666667 496,282 C 652.5333333333334,275.7333333333333 795.8666666666666,259.06666666666666 951,257 C 1106.1333333333334,254.93333333333334 1273.0666666666666,267.4666666666667 1440,280 C 1440,280 1440,700 1440,700 Z" stroke="none" stroke-width="0" fill="url(#gradient)" class="transition-all duration-300 ease-in-out delay-150 path-1"></path><defs><linearGradient id="gradient" x1="46%" y1="0%" x2="54%" y2="100%"><stop offset="5%" stop-color="#002bdc88"></stop><stop offset="95%" stop-color="#fcb90088"></stop></linearGradient></defs><path d="M 0,700 C 0,700 0,420 0,420 C 196.8,401.4666666666667 393.6,382.93333333333334 554,374 C 714.4,365.06666666666666 838.4000000000001,365.73333333333335 980,375 C 1121.6,384.26666666666665 1280.8,402.1333333333333 1440,420 C 1440,420 1440,700 1440,700 Z" stroke="none" stroke-width="0" fill="url(#gradient)" class="transition-all duration-300 ease-in-out delay-150 path-2"></path><defs><linearGradient id="gradient" x1="46%" y1="0%" x2="54%" y2="100%"><stop offset="5%" stop-color="#002bdcff"></stop><stop offset="95%" stop-color="#fcb900ff"></stop></linearGradient></defs><path d="M 0,700 C 0,700 0,560 0,560 C 175.59999999999997,545.6 351.19999999999993,531.2 510,540 C 668.8000000000001,548.8 810.8000000000002,580.8 963,588 C 1115.1999999999998,595.2 1277.6,577.6 1440,560 C 1440,560 1440,700 1440,700 Z" stroke="none" stroke-width="0" fill="url(#gradient)" class="transition-all duration-300 ease-in-out delay-150 path-3"></path></svg>